<svg id="Layer_1" data-name="Layer 1" xmlns="http://www.w3.org/2000/svg" viewBox="0 0 1356.38 1214.56"><defs><style>.cls-1{fill:#53803a;}.cls-2{fill:#233231;}</style></defs><title>3</title><g id="Layer_4" data-name="Layer 4"><path class="cls-1" d="M1296,527.62c-.33-.1,3.82-3,7.77-7.72s7.82-10.76,10.8-14.8a57.15,57.15,0,0,1-12.82,12.55c-4.78,3.29-9,4.37-8.89,4.18,1.29-4.12,2.14-7.43,3.1-10.27a33.29,33.29,0,0,1,3.4-7.62A37.49,37.49,0,0,1,1324,487.32a25.43,25.43,0,0,1,4.31-.38c1,0,1.58,0,1.58,0s-.12,2.33-.42,5.7a75.58,75.58,0,0,1-1.89,12.53,31.75,31.75,0,0,1-8.67,15.06,29.42,29.42,0,0,1-9.76,6.13A25.35,25.35,0,0,1,1296,527.62Z" transform="translate(-116.44 -172.48)"/><path class="cls-1" d="M1359.94,794c-.35.14,1.23-5.7,2.58-13.08s2.81-16.32,4.26-22.44a113.55,113.55,0,0,1-7.86,21.25c-3.17,6.66-6.45,11.25-6.53,10.94-3.57-10.31-4.73-18.3-3.73-25.62a43.7,43.7,0,0,1,7.49-18.94,61.25,61.25,0,0,1,11.28-12.38,47,47,0,0,1,5.89-4.29,55.13,55.13,0,0,1,3.48,6.37,58.11,58.11,0,0,1,5,16,40.94,40.94,0,0,1-2.38,21.6A39.91,39.91,0,0,1,1359.94,794Z" transform="translate(-116.44 -172.48)"/><path class="cls-1" d="M1198.32,682.39c-.09.28-2.75-4-5.6-10a148.49,148.49,0,0,1-7.6-18.66c1.65,5.34,3.17,13.21,4.41,19.71s2.24,11.65,2,11.51c-8.82-4.83-14.09-11.3-17-17.62a37.37,37.37,0,0,1-3.07-18.27,61.4,61.4,0,0,1,2.91-14.29,57.73,57.73,0,0,1,2.26-6,36.43,36.43,0,0,1,5.72,3,47.25,47.25,0,0,1,11.29,10.1,37.47,37.47,0,0,1,7.9,17.06C1202.68,665.72,1201.88,673.25,1198.32,682.39Z" transform="translate(-116.44 -172.48)"/><path class="cls-1" d="M1131,581.23c-.27.15.84-4.9,4-11.06a85.59,85.59,0,0,1,11.66-17.71c-3.93,4.41-10,10.37-14.6,15.73s-8,10.13-8.06,9.8a35.37,35.37,0,0,1,4.23-26.85,37.36,37.36,0,0,1,15.74-13.94,46.63,46.63,0,0,1,15.57-4.33,37.22,37.22,0,0,1,6.86-.14,65.88,65.88,0,0,1-.74,6.75,71.55,71.55,0,0,1-3.9,14.8,42,42,0,0,1-10.1,15.46,40.81,40.81,0,0,1-8.62,6.2A102.23,102.23,0,0,1,1131,581.23Z" transform="translate(-116.44 -172.48)"/><path class="cls-1" d="M1214.75,580.56c-.36.22.44-5.94-.82-13.19-1.09-7.28-3.8-15.48-5.13-21.36,1.33,5.85,2.31,14.58,1.51,21.45s-3.17,11.47-3.22,11.2c-2.63-4.39-5-7.62-6.84-10.64a39.6,39.6,0,0,1-4.34-9,42.56,42.56,0,0,1-1.4-19.73,39.52,39.52,0,0,1,6-16.07,26.36,26.36,0,0,1,3.28-4.06,18.9,18.9,0,0,1,1.37-1.31l4.53,5.09a118,118,0,0,1,9.46,11.53,38.12,38.12,0,0,1,6.79,19.34,35.17,35.17,0,0,1-2,13.7A29.13,29.13,0,0,1,1214.75,580.56Z" transform="translate(-116.44 -172.48)"/><path class="cls-1" d="M1219.94,466.59c-.42,0,3.91-5.52,9.39-12.5s12.19-15.4,17.39-20.78a187.1,187.1,0,0,1-20.53,17.56c-7.06,5.28-12.89,8.85-12.84,8.46,1.38-13.13,5.16-22.62,10.64-29.86a50.61,50.61,0,0,1,19.57-15.37,68.14,68.14,0,0,1,19.32-5.5,53.9,53.9,0,0,1,8.65-.53,67,67,0,0,1-.59,8.61,74.08,74.08,0,0,1-4.94,19.18,49.71,49.71,0,0,1-15,20.22C1243.63,461.88,1233.38,466.25,1219.94,466.59Z" transform="translate(-116.44 -172.48)"/><path class="cls-1" d="M1157.4,358.62c-.2.06.12-1.32.81-3.85.52-1.19,1.19-2.64,2.06-4.26a37.77,37.77,0,0,1,3.66-4.92c5.79-6.92,15.9-12.93,23.31-15.69-7.42,2.8-18.31,6.46-26.46,12.09a54.86,54.86,0,0,0-5.57,4.25c-1.57,1.51-2.94,3-4.09,4.19-2,2.69-3.28,4.37-3.33,4.14-1.82-7.68.23-15.88,3.74-22.2a42.39,42.39,0,0,1,13.4-14.52,47.16,47.16,0,0,1,29.28-7.8,59.35,59.35,0,0,1,21.22,5.48,54.07,54.07,0,0,1,8.07,4.48,78.76,78.76,0,0,1-5.45,7.37,108.67,108.67,0,0,1-14.42,14.53c-5.91,4.87-12.52,9.14-19.71,11.5a56.12,56.12,0,0,1-11.47,2.41C1168.31,356.39,1163.5,356.5,1157.4,358.62Z" transform="translate(-116.44 -172.48)"/><path class="cls-1" d="M1100.05,371.25c-.41.27.19-7.11-1.56-15.71-1.49-8.66-4.73-18.51-6.55-25.49a81.89,81.89,0,0,1,2.21,25.7c-.56,8.37-3.3,14-3.38,13.64-3.36-5.1-6.36-9-8.67-12.7a50,50,0,0,1-5.36-10.91,52.65,52.65,0,0,1-2.25-22.34,68.77,68.77,0,0,1,4.58-18.8,45.15,45.15,0,0,1,3.76-7.5,80.09,80.09,0,0,1,6.88,4.64,67.87,67.87,0,0,1,13.76,13.3,45.06,45.06,0,0,1,9.26,24.11,41.81,41.81,0,0,1-2.13,16.26A36.48,36.48,0,0,1,1100.05,371.25Z" transform="translate(-116.44 -172.48)"/><path class="cls-1" d="M1062.93,460.34c-.17.23-1.3-4.35-4-9.17s-6.45-10.26-9-14a48.48,48.48,0,0,1,6.43,15c1.3,5.17.78,9.05.65,8.87-3-2.38-5.6-4.12-7.74-5.94a31.69,31.69,0,0,1-11-17.81,75.34,75.34,0,0,1-1.91-11.39c-.3-3.11-.36-5.22-.36-5.22a23.28,23.28,0,0,1,5.34.32,31.9,31.9,0,0,1,12,4.53,28,28,0,0,1,11,13,25.86,25.86,0,0,1,1.9,10.24A23.26,23.26,0,0,1,1062.93,460.34Z" transform="translate(-116.44 -172.48)"/><path class="cls-1" d="M1017.68,337.18c-.14.12-.37-1.15-.66-3.47,0-1.16.06-2.58.16-4.21a36.45,36.45,0,0,1,1.19-5.31c2.18-7.68,8.05-16.25,12.9-21.28-4.84,5.07-12.21,12-16.75,19.52a50.76,50.76,0,0,0-3,5.42c-.7,1.78-1.35,3.42-1.82,4.81-.7,2.85-1.17,4.64-1.28,4.47-4.08-5.56-5.4-12.78-4.88-19.12a37.83,37.83,0,0,1,5.38-16.46,42.26,42.26,0,0,1,20-17,60.25,60.25,0,0,1,18.36-4.26c4.86-.4,8.08-.31,8.08-.31a43.72,43.72,0,0,1-.75,8.15,74.41,74.41,0,0,1-5.53,17.8,54.08,54.08,0,0,1-11.72,17.14,48.31,48.31,0,0,1-8.43,6.29C1025.79,331.37,1021.94,333.29,1017.68,337.18Z" transform="translate(-116.44 -172.48)"/><path class="cls-1" d="M973.61,278.16c0,.1-.12-.22-.48-1l-1.27-2.6c-1-2.08-2.47-5-4.09-8.3-3.19-6.55-6.72-14.67-8.83-20.46,2.11,5.79,3.93,14.48,5.31,21.62s2,12.81,1.39,12.11a17.28,17.28,0,0,1-3-1.76c-1-.7-2-1.43-3-2.17a45.76,45.76,0,0,1-5.08-4.62,38.41,38.41,0,0,1-6.93-10,42.6,42.6,0,0,1-4-19.17,91.34,91.34,0,0,1,1.71-15.52c.74-4.11,1.4-6.87,1.4-6.87a30,30,0,0,1,6.84,2.35A44.25,44.25,0,0,1,967.42,232a40,40,0,0,1,9.88,19.24,40.48,40.48,0,0,1,.39,12.16,47.6,47.6,0,0,1-1.35,6.92c-.33,1.2-.71,2.43-1.15,3.69S974.32,276.5,973.61,278.16Z" transform="translate(-116.44 -172.48)"/><path class="cls-1" d="M1005.9,263.2c-.29.09,2.27-4.81,7.21-10.17a85.63,85.63,0,0,1,17.29-14.32c-5.35,3.25-13.36,7.33-19.71,11.44s-11,8.11-11,7.72a35.56,35.56,0,0,1,4-15.49,37.53,37.53,0,0,1,8.53-10.81,39.91,39.91,0,0,1,19.8-9.08,69,69,0,0,1,16.3-.5c4.28.32,7.13.81,7.13.81a36,36,0,0,1-1.75,7.09,52.26,52.26,0,0,1-8.16,15,44.41,44.41,0,0,1-15.43,12.9,42.11,42.11,0,0,1-10.44,3.48A130.82,130.82,0,0,1,1005.9,263.2Z" transform="translate(-116.44 -172.48)"/><path class="cls-1" d="M1058.49,557c-.41.18,1.55-5.36.09-11.77-1.17-6.4-4.86-12.91-7.21-17.48,2.38,4.54,4.64,11.89,4.11,17.69-.3,5.87-3.29,9.09-3.2,8.86a31.1,31.1,0,0,0-5.41-8.11,33.33,33.33,0,0,1-4.19-5.77,40.73,40.73,0,0,1-4.49-14.24,51.59,51.59,0,0,1-.17-13.82,27.23,27.23,0,0,1,1.35-5.88s2.25.72,5.54,2a46.53,46.53,0,0,1,11.91,6.78,30.42,30.42,0,0,1,10.56,16.47,27,27,0,0,1-.13,13.32A19.87,19.87,0,0,1,1058.49,557Z" transform="translate(-116.44 -172.48)"/><path class="cls-1" d="M1004.66,645.44c-.21,0,.76-1.51,2-4a36.11,36.11,0,0,0,2.52-10.1c1-7.88-.12-17.07-.61-23.45.52,6.36-.32,15.79-3.14,22.53a23.45,23.45,0,0,1-4.44,7.43c-1.51,1.33-2.39,1.89-2.4,1.75-.68-4.83-2.58-8.19-3.66-11.51a44.35,44.35,0,0,1-2.35-9.53,49.29,49.29,0,0,1,1.53-18.27,139.36,139.36,0,0,1,5-15c.77-2,1.41-3.69,1.81-4.87l.7-1.91a16.49,16.49,0,0,1,1.88.74,26.41,26.41,0,0,1,4.85,2.79,41.67,41.67,0,0,1,12.2,13.73,38.31,38.31,0,0,1,4.55,24.12,34.87,34.87,0,0,1-5.6,14.54,30,30,0,0,1-6.11,6.71,29.48,29.48,0,0,1-4.06,2.66A26.63,26.63,0,0,1,1004.66,645.44Z" transform="translate(-116.44 -172.48)"/><path class="cls-1" d="M908.12,482.32c-.27-.06,1.25-1,2.85-3.38a16.72,16.72,0,0,0,2.1-4.63,28.86,28.86,0,0,0,.89-5.71c.43-8-1.44-16.94-2.34-23.26.93,6.27.85,15.73-1.43,22.55a20,20,0,0,1-2,4.32,9.11,9.11,0,0,1-2.31,2.44c-1.59,1.13-2.83,1.17-2.77,1.08.31-2.08-.05-4.43-1.08-5.52a40.79,40.79,0,0,1-2.39-4.06,34.66,34.66,0,0,1-3.08-8.94,48.23,48.23,0,0,1,.29-18.86,89.89,89.89,0,0,1,4.73-15.59c1.62-4,2.85-6.68,2.85-6.68a31.07,31.07,0,0,1,6.46,3.79,47.22,47.22,0,0,1,12.06,13,38.73,38.73,0,0,1,5.94,23,35.91,35.91,0,0,1-4.51,15.17,28,28,0,0,1-6.4,7.8A13.6,13.6,0,0,1,908.12,482.32Z" transform="translate(-116.44 -172.48)"/><path class="cls-1" d="M868.26,605.69c-.21.11,1.51-4.08,5.7-8.37a45.86,45.86,0,0,1,7.39-6.09,49.27,49.27,0,0,1,8-4.25c-4.82,1.94-11.85,4.54-17.29,7.88s-9.15,7.07-9.2,6.72a25.39,25.39,0,0,1,3.49-13.33,29.24,29.24,0,0,1,8.41-9,31.57,31.57,0,0,1,18.45-5.41,47,47,0,0,1,13.66,2.48,53.91,53.91,0,0,1,5.59,2.14,33.89,33.89,0,0,1-2.86,5.32,52.32,52.32,0,0,1-9,10.53,39.78,39.78,0,0,1-13.27,8.15,37.23,37.23,0,0,1-8.09,1.82C876.16,604.74,872.66,605,868.26,605.69Z" transform="translate(-116.44 -172.48)"/><path class="cls-1" d="M1147.53,512c-.22,0,2.2-3,6-6.28a54.7,54.7,0,0,1,13-8.28c-4,1.66-9.78,3.85-14.46,6.1s-8.24,4.35-8.21,4.09A25.39,25.39,0,0,1,1154.7,491a26.75,26.75,0,0,1,14.94-4.44,36.11,36.11,0,0,1,11.5,2,35,35,0,0,1,4.62,1.89,36.24,36.24,0,0,1-2.47,4.34,47.51,47.51,0,0,1-7.29,8.67,31.73,31.73,0,0,1-11.26,7C1160.28,512,1155.05,512.45,1147.53,512Z" transform="translate(-116.44 -172.48)"/><path class="cls-1" d="M1279.7,575.79c-.21,0,3.55-1.35,8.77-.46a30.77,30.77,0,0,1,8,2.61,33,33,0,0,1,6.7,4.4c-1.72-1.55-3.9-3.33-6.25-5.13a47.19,47.19,0,0,0-7.67-4.55c-5.21-2.45-10.13-2.68-9.9-2.94a20.18,20.18,0,0,1,11.86-4.59,24.79,24.79,0,0,1,11.43,2.31,26.7,26.7,0,0,1,12.81,13.31,29.69,29.69,0,0,1,2.48,12.94,23.8,23.8,0,0,1-.69,5.37s-2.09-.46-5.13-1.35a106.52,106.52,0,0,1-10.88-3.81,37.76,37.76,0,0,1-10.71-6.32,34.86,34.86,0,0,1-4.56-4.9A68.85,68.85,0,0,0,1279.7,575.79Z" transform="translate(-116.44 -172.48)"/><path class="cls-1" d="M1348.17,560.65c-.18-.18,3.79-.75,8.74-2a53.52,53.52,0,0,0,14.25-5.79,25.4,25.4,0,0,1-6.83,2.53,35.73,35.73,0,0,1-7.73.74c-4.88-.09-8.61-.9-8.44-1a65.61,65.61,0,0,1,13-9.53c3.24-1.73,6.24-2.38,9.84-3.27s7.27-1.6,10.11-2.08,4.79-.66,4.79-.66a24.69,24.69,0,0,1,0,4.92,25,25,0,0,1-3.84,11.52,23,23,0,0,1-14.59,10A22.48,22.48,0,0,1,1348.17,560.65Z" transform="translate(-116.44 -172.48)"/><path class="cls-1" d="M1247,719.59c-.14.1-.23-1.08-.29-3.2.12-1.06.21-2.36.46-3.82a40.54,40.54,0,0,1,1.25-4.78,60.52,60.52,0,0,1,11-19.44c-4.09,4.75-10.28,11.32-14.39,17.81-1.11,1.56-1.92,3.21-2.77,4.66s-1.36,2.91-1.92,4.07c-.85,2.44-1.41,4-1.5,3.79a28.66,28.66,0,0,1-3.48-16.66A35,35,0,0,1,1239.6,688a38.18,38.18,0,0,1,17-15.93,46.67,46.67,0,0,1,16.76-4.4,38,38,0,0,1,7.29,0s-.21,2.88-1,7.14a86.11,86.11,0,0,1-4.32,15.52,47.29,47.29,0,0,1-9.73,15.85,45.68,45.68,0,0,1-7.86,6.41C1254.77,714.65,1251.14,716.51,1247,719.59Z" transform="translate(-116.44 -172.48)"/><path class="cls-1" d="M1336.49,673.46c-.19,0,.23-1.2,1.12-3.48.58-1,1.39-2.28,2.37-3.69a31.2,31.2,0,0,1,4.08-4c6.45-5.55,17-9.35,24.26-10.89-7.34,1.59-18.1,3-26.65,7a45.7,45.7,0,0,0-5.87,3.21c-1.66,1.25-3.17,2.45-4.39,3.51-2.18,2.35-3.57,3.84-3.59,3.62-1-7.47,2.21-15.26,6.68-20.73a40.25,40.25,0,0,1,15.07-11.46,45.51,45.51,0,0,1,27.38-2.88,80.79,80.79,0,0,1,18.38,6.38l7.72,3.6a21.89,21.89,0,0,1-1.07,2.12,34.9,34.9,0,0,1-3.68,5.37,63.51,63.51,0,0,1-15.7,13.47c-6.63,4.09-14,7.19-21.25,8.23a46.44,46.44,0,0,1-10.88.26C1346.73,672.9,1342.44,672.1,1336.49,673.46Z" transform="translate(-116.44 -172.48)"/><path class="cls-1" d="M1385.35,848c-.26,0,3.21-3.23,8.89-5.9s13.15-4.87,18.57-5a120.24,120.24,0,0,0-19.59,1.92c-6.44,1.13-11.43,3.14-11.33,2.81a29.5,29.5,0,0,1,19-17.18,31.67,31.67,0,0,1,21.47,1.5,27.71,27.71,0,0,1,12.48,10.55,18.73,18.73,0,0,1,2,4.3,14.09,14.09,0,0,1,.46,1.63l-1.66.43c-1,.28-2.45.58-4.15,1.18-3.35,1-7.38,2.73-11.61,4.33a40.37,40.37,0,0,1-14.19,3C1400.29,851.8,1394.21,850.44,1385.35,848Z" transform="translate(-116.44 -172.48)"/><path class="cls-1" d="M1433.76,763c-.21-.09,3.12-2.06,7.7-4.23s10.18-4.72,14.13-6.35a83.89,83.89,0,0,1-14.93,3.9c-5,.9-9,1.62-8.84,1.42A31.73,31.73,0,0,1,1445,744.76a29.78,29.78,0,0,1,12.7-3.08c3.91-.13,7.5.17,10.33.24,1.44.08,2.6.06,3.46.07l1.36,0s0,.47-.06,1.34a17.16,17.16,0,0,1-.7,3.67,25.47,25.47,0,0,1-6.44,10.65,27.17,27.17,0,0,1-13.56,7.57C1446.62,766.42,1440.67,765.78,1433.76,763Z" transform="translate(-116.44 -172.48)"/><path class="cls-1" d="M1198.5,838.82c-.26-.41,6.56.52,14.45-1.38a74.73,74.73,0,0,0,11.88-4c3.82-1.68,7.39-3.4,10.37-4.76a61.28,61.28,0,0,1-10.74,3.61,47.74,47.74,0,0,1-11.9,1.23c-7.47-.25-12.37-3-12.08-3a111.93,111.93,0,0,0,10.73-7.82,44.49,44.49,0,0,1,8.13-5.48,49.86,49.86,0,0,1,19.11-5.12,52.88,52.88,0,0,1,17.93,1.51,35,35,0,0,1,5.3,1.87c1.21.54,1.85.91,1.85.91l-1,1.84-2.62,4.69a75.08,75.08,0,0,1-9.67,13.8,39.52,39.52,0,0,1-20.69,12,36.21,36.21,0,0,1-16.07-.3A28.89,28.89,0,0,1,1198.5,838.82Z" transform="translate(-116.44 -172.48)"/><path class="cls-1" d="M1266,906c-.28.09,3.83-3.24,10.84-3.06a33.62,33.62,0,0,1,11,2.2,49.82,49.82,0,0,1,9.59,4.82c-5.17-3.38-12.45-8.64-20-10.7a37.19,37.19,0,0,0-5.42-1.06c-1.7,0-3.29-.22-4.58-.11-2.59.26-4.22.4-4.11.25,3.33-5,9.19-8.38,15.15-9.44a32.33,32.33,0,0,1,16.18,1.43,36.64,36.64,0,0,1,18.26,14.54,63.4,63.4,0,0,1,6.75,14.63c.67,2,1.22,3.65,1.6,4.81s.59,1.88.59,1.88-.65.23-1.87.54a31.17,31.17,0,0,1-5.29.82,54.32,54.32,0,0,1-16.84-1.62,48.91,48.91,0,0,1-16.57-7.18,36.8,36.8,0,0,1-6.16-5.59A32.71,32.71,0,0,0,1266,906Z" transform="translate(-116.44 -172.48)"/><path class="cls-1" d="M1336.05,895.84c-.16-.18,3.8-.1,8.87,1.23s11,3.71,14.67,6.39a128.62,128.62,0,0,0-13.67-8.89c-4.67-2.68-8.74-4.31-8.51-4.44,15.25-7,28.88,1,34.16,11.28,2.76,5.13,3.11,10.8,2,14.21a10.82,10.82,0,0,1-1.72,3.71,9.69,9.69,0,0,1-.86,1.1l-1.11-.91a14.82,14.82,0,0,0-2.85-1.91c-2.4-1.36-5.55-2.14-8.9-3.13a31.87,31.87,0,0,1-10.66-5.2C1343.76,906.52,1340.17,902.3,1336.05,895.84Z" transform="translate(-116.44 -172.48)"/><path class="cls-1" d="M1025.55,736.1c-.2-.21,4.44-.77,10.25-1.86a172.09,172.09,0,0,0,17.45-4.24c-4.75,1.41-11.89,1.78-17.61,1.28s-10.09-1.5-9.89-1.64c13.27-11.17,22-12,30.66-11.64l17.27,1.15s0,.55-.15,1.54a21.49,21.49,0,0,1-1,4.17,27.26,27.26,0,0,1-8.07,12.09,28.52,28.52,0,0,1-39-.85Z" transform="translate(-116.44 -172.48)"/><path class="cls-1" d="M1403.12,760.62c-.34-.12,3.85-2.48,6.78-7.14s4.78-10.62,6.15-14.75c-1.34,4.13-4.39,9.84-8.14,13s-7.37,3.78-7.21,3.67a33.78,33.78,0,0,0,1.57-8.3,28.22,28.22,0,0,1,1-6.06,34.22,34.22,0,0,1,6-11.37,37.48,37.48,0,0,1,8.65-8.21,23.37,23.37,0,0,1,3.28-1.83,12.29,12.29,0,0,1,1.27-.52s.72,1.87,1.69,4.66a46,46,0,0,1,2.6,11,26,26,0,0,1-3.62,15.86,23.09,23.09,0,0,1-8,7.82A17.45,17.45,0,0,1,1403.12,760.62Z" transform="translate(-116.44 -172.48)"/><path class="cls-1" d="M1269.66,778.76c-.24.08,2.06-4.21,6.71-8.63a54.48,54.48,0,0,1,8-6.34,48.57,48.57,0,0,1,8.56-4.37c-2.6,1-5.76,2.14-9,3.46a101.06,101.06,0,0,0-9.53,4.56c-5.93,3.2-10.11,6.82-10.14,6.45a29.27,29.27,0,0,1,4.33-13.71,31,31,0,0,1,8.91-9.21,33,33,0,0,1,20.5-5.39,37,37,0,0,1,15,4.31,30.1,30.1,0,0,1,5.4,3.57s-1.57,2-4.15,4.8a106.83,106.83,0,0,1-10,9.63,42.64,42.64,0,0,1-13.68,8C1285.23,777.73,1279.11,778.12,1269.66,778.76Z" transform="translate(-116.44 -172.48)"/><path class="cls-1" d="M1318.9,712.84c-.15-.22,4.19.14,9.51-.06s11.7-.6,16.16-.35a98.82,98.82,0,0,1-15.89-2.32c-5.08-1.17-8.64-2.87-8.43-3,6.59-3.86,11.66-6,17-6.39a30.74,30.74,0,0,1,25.15,10.56,20.84,20.84,0,0,1,2.21,3.15,12.75,12.75,0,0,1,.66,1.24l-1.26.63-3.29,1.57a83.81,83.81,0,0,1-10.22,4.27,29.7,29.7,0,0,1-14.42,1.13,28.25,28.25,0,0,1-8.76-3.15A27.59,27.59,0,0,1,1318.9,712.84Z" transform="translate(-116.44 -172.48)"/><path class="cls-1" d="M1244.5,645.4c-.22.1,1.28-4,4.48-8.68a53.33,53.33,0,0,1,12.16-12.62c-4,2.82-9.87,6.74-14.35,10.64s-7.62,7.48-7.69,7.18a27.75,27.75,0,0,1,1.37-12.42,28.07,28.07,0,0,1,5.73-9.45,30,30,0,0,1,15.66-8.82,43.74,43.74,0,0,1,18.82.41,39.25,39.25,0,0,1-1.69,5.41,54.28,54.28,0,0,1-6,11.38,36.55,36.55,0,0,1-10.51,10.4C1258.09,641.61,1252.73,643.35,1244.5,645.4Z" transform="translate(-116.44 -172.48)"/><path class="cls-1" d="M1276.5,501.79c-.37,0,2.71-4.61,4.31-10.93,1.82-6.25,2.63-13.86,3.53-19.1a55.84,55.84,0,0,1-6.47,17.85c-3,5.36-6.8,7.95-6.73,7.71-.43-4.45-1.2-7.88-1.57-11a36.81,36.81,0,0,1-.23-8.72,39.08,39.08,0,0,1,5.32-15.68,46.82,46.82,0,0,1,9-11.27,28.36,28.36,0,0,1,5-3.71s1.29,2.07,3,5.31a54.69,54.69,0,0,1,5,13,33.15,33.15,0,0,1-1.16,19,30.44,30.44,0,0,1-6.62,10.42A25.34,25.34,0,0,1,1276.5,501.79Z" transform="translate(-116.44 -172.48)"/><path class="cls-1" d="M1205.07,370.89c-.14-.13,1.37-.33,3.76-.85s5.61-1.42,9.07-2.52a112.66,112.66,0,0,1,11-3.13,38.68,38.68,0,0,1,10.51-.75,102,102,0,0,0-10.64-.37c-3.89.12-7.91.48-11.48.64a50.69,50.69,0,0,1-8.76-.23c-2.11-.29-3.25-.69-3.14-.77,3.72-3.49,6.43-6.53,9.78-9a30.83,30.83,0,0,1,11.65-5.4,33,33,0,0,1,7.18-.79,34.23,34.23,0,0,1,6.27.63,36.26,36.26,0,0,1,10,3.54,67.4,67.4,0,0,1,12.71,9.26c3.08,2.7,5.15,4.61,5.15,4.61a27.19,27.19,0,0,1-5.43,4.69,50.38,50.38,0,0,1-15.37,6.74,54.62,54.62,0,0,1-16.85,2,61.72,61.72,0,0,1-11.14-1.55A34.66,34.66,0,0,1,1205.07,370.89Z" transform="translate(-116.44 -172.48)"/><path class="cls-1" d="M1139,310c-.27.23-.49-5.16-2.16-11.48s-4.38-13.58-6.12-18.68a60.23,60.23,0,0,1,2.9,19.06c0,6.25-1.56,10.73-1.66,10.5-2.91-3.6-5.35-6.47-7.27-9.19a37.74,37.74,0,0,1-4.53-7.93,39.45,39.45,0,0,1-2.79-16.33,54.88,54.88,0,0,1,2.2-14.14,38.37,38.37,0,0,1,2.18-5.86,51.4,51.4,0,0,1,5.5,2.91,48.09,48.09,0,0,1,11.2,9.13,33.5,33.5,0,0,1,8.24,17.67,31.62,31.62,0,0,1-.82,12.18A28.78,28.78,0,0,1,1139,310Z" transform="translate(-116.44 -172.48)"/><path class="cls-1" d="M910.05,241.25c0,.28-3.72-3.06-8.17-7.49s-9.55-10.22-12.25-14.85c5.29,9.25,15.58,26.68,14.86,26.6-9.27-1.75-16-5.58-20.82-10.9a33.38,33.38,0,0,1-8.08-18.27,30.59,30.59,0,0,1,2.13-15.56A21.54,21.54,0,0,1,880,196.7a15.82,15.82,0,0,1,1-1.35l4.73,3.74c2.76,2.2,6.49,4.75,10.13,7.78a38,38,0,0,1,10,12.17C908.61,224.43,910.59,231.66,910.05,241.25Z" transform="translate(-116.44 -172.48)"/><path class="cls-1" d="M961.5,354.6c0,.26-3.35-2.41-7.72-5.6s-9.79-6.84-13.51-9.43A62.67,62.67,0,0,1,951.9,351c3.32,4.14,5.44,7.68,5.21,7.64-15.79-1.55-22.55-7.72-27.63-14.83a78.2,78.2,0,0,1-5.77-9.89c-1.37-2.78-2.14-4.73-2.14-4.73a25.09,25.09,0,0,1,5.06-1.54,31.08,31.08,0,0,1,12.71,0,27.34,27.34,0,0,1,22.16,27Z" transform="translate(-116.44 -172.48)"/><path class="cls-1" d="M857.73,289.19c.32,0-2.63,3.48-5.37,8.52a34.78,34.78,0,0,0-3.2,8.38,49.54,49.54,0,0,0-1,8.08,24.31,24.31,0,0,1,1.78-7.82,25,25,0,0,1,4.68-7c3.66-3.83,7.32-5.86,7.24-5.66-.23,4.06-.66,7.33-.74,10-.13,2.3-.23,4.29-.33,6.14a22.79,22.79,0,0,1-.94,4.84c-.41,1.8-1.09,3.72-1.72,5.8a70,70,0,0,1-4.66,11,38,38,0,0,1-2.83,4.57,37,37,0,0,1-4.18-3.4,33.58,33.58,0,0,1-7.7-10.3,25.52,25.52,0,0,1-2.28-8.7,24.83,24.83,0,0,1,1.89-11.22,21.88,21.88,0,0,1,7.79-9.46A22.6,22.6,0,0,1,857.73,289.19Z" transform="translate(-116.44 -172.48)"/><path class="cls-1" d="M815.39,564.29c-.26.05,1.71-3.84,4.3-8.74s5.82-10.8,8.43-14.68c-5.16,7.84-17.56,20.34-17.65,19.76C809,544.21,816.08,535,824,529.43a45.46,45.46,0,0,1,16.35-7,44.19,44.19,0,0,1-.08,17.82C838.24,549.66,831.81,560.64,815.39,564.29Z" transform="translate(-116.44 -172.48)"/><path class="cls-1" d="M851.51,424.18c.09.09-.75.32-2.36.66a27.19,27.19,0,0,1-3,0,21.11,21.11,0,0,1-3.84-.78c-5.59-1.49-11.78-5.85-15.26-9.55,3.5,3.69,8.51,9.13,14,12.36a30.18,30.18,0,0,0,4,2.08c1.29.54,2.56.86,3.59,1.22a16.35,16.35,0,0,1,3.42.69c-4,3.36-9.48,4.35-14.13,4a26.89,26.89,0,0,1-12.17-4,29.7,29.7,0,0,1-12.36-15.9,30.86,30.86,0,0,1-1.18-14.79,20.72,20.72,0,0,1,1.17-4.29,14.72,14.72,0,0,1,.65-1.47l1.47.69c.9.44,2.17,1,3.74,1.73,3.09,1.4,7.14,3.12,11.18,5.28a40.79,40.79,0,0,1,11.19,8.29,37.33,37.33,0,0,1,4.33,6C847.4,418.56,848.63,421.34,851.51,424.18Z" transform="translate(-116.44 -172.48)"/><path class="cls-1" d="M916.72,619.64c-.06,0,0-.15.22-.4a4.13,4.13,0,0,1,1.09-1.1,24,24,0,0,1,5.7-3.06,59.31,59.31,0,0,1,16.15-3.8c-4.62.32-11.27.43-16.84,1.1a39.32,39.32,0,0,0-7.2,1.44c-1.89.58-3.19,1.46-3.12,1.25a23,23,0,0,1,8.1-10.13,27.48,27.48,0,0,1,9.26-4.42,29,29,0,0,1,16.91.79,30.91,30.91,0,0,1,11.37,6.9,15.64,15.64,0,0,1,2.6,3.26,7.7,7.7,0,0,1,.64,1.32l-1.33.6c-.76.35-1.92,1-3.16,1.78a85.31,85.31,0,0,1-10,5.5,33.52,33.52,0,0,1-13.71,3.1,31.58,31.58,0,0,1-8-1.1C922.57,622,919.8,620.75,916.72,619.64Z" transform="translate(-116.44 -172.48)"/><path class="cls-1" d="M972.46,478.28c-.27-.17,4.11-1.5,8.12-4.94,4.16-3.26,7.88-8.19,10.36-11.64a30.48,30.48,0,0,1-11.71,9.46c-4.44,2.08-8.07,1.74-7.89,1.65a71.24,71.24,0,0,0,4-7.63,30.8,30.8,0,0,1,11.35-13.34c3-2.2,6.2-4.16,8.58-5.72l4.07-2.6s.27.4.68,1.16a19.78,19.78,0,0,1,1.46,3.39,25.06,25.06,0,0,1,.81,12.37,24.45,24.45,0,0,1-8.69,14.68,22.37,22.37,0,0,1-9.55,4.47A18.55,18.55,0,0,1,972.46,478.28Z" transform="translate(-116.44 -172.48)"/><path class="cls-1" d="M847.58,741.71c-.09.24-1.75-4.54-1.5-11.15a39.55,39.55,0,0,1,2-10.37,34.25,34.25,0,0,1,4.61-8.86,83.61,83.61,0,0,0-5.59,8.42,60,60,0,0,0-4.44,10.18c-2.13,6.8-2.32,12.64-2.63,12.39a27.41,27.41,0,0,1-7-13.7,29.83,29.83,0,0,1,1.08-14.48,31.93,31.93,0,0,1,32.73-21.45,28,28,0,0,1,4.92.8c1.14.28,1.75.5,1.75.5l-.55,1.75c-.37,1.08-.89,2.62-1.53,4.48l-4.48,13c-1.68,4.65-3.26,8.92-6.07,12.83S853.89,734,847.58,741.71Z" transform="translate(-116.44 -172.48)"/><path class="cls-1" d="M907.48,826c-.2-.06,3.23-1.93,8.25-3a50.84,50.84,0,0,1,15.84-.6c-4.39-.58-10.65-1.8-16-2.06s-9.73.29-9.59,0a23.76,23.76,0,0,1,8.73-7.43,25.75,25.75,0,0,1,9.76-2.53,27.63,27.63,0,0,1,15.13,3.68,54.25,54.25,0,0,1,9.19,6.77c2.27,2,3.7,3.46,3.7,3.46a23.2,23.2,0,0,1-4,3.3,34.51,34.51,0,0,1-11.24,4.85,32.1,32.1,0,0,1-14.09.39C918.45,832,914.2,829.64,907.48,826Z" transform="translate(-116.44 -172.48)"/><path class="cls-1" d="M941.94,784c-.22-.06,3.55-2.21,9-3.64a52.73,52.73,0,0,1,17.43-1.43c-4.86-.52-11.84-1.49-17.78-1.49s-10.67.7-10.52.42a27,27,0,0,1,9.2-8.52A28.23,28.23,0,0,1,959.9,766a30.07,30.07,0,0,1,17.44,3.69,43.51,43.51,0,0,1,10.32,8.09,44.06,44.06,0,0,1,3.68,4.28,36.34,36.34,0,0,1-4.75,3.11,50.43,50.43,0,0,1-12.08,4.78,36.6,36.6,0,0,1-14.86.86C954.56,790,949.51,787.75,941.94,784Z" transform="translate(-116.44 -172.48)"/><path class="cls-1" d="M1122,816.35c-.29-.07,3.14-2.64,5.82-6.88,2.84-4.13,5-9.6,6.49-13.37a32.79,32.79,0,0,1-8.34,11.77c-3.47,3.15-6.84,4.06-6.72,3.91.79-3.32,1.06-6,1.47-8.25a30.77,30.77,0,0,1,1.53-6.09,31.65,31.65,0,0,1,6-9.69,80,80,0,0,1,7.15-7.26c2.06-1.86,3.54-3,3.54-3a21.08,21.08,0,0,1,2.59,4,27,27,0,0,1,3,11.09,23.93,23.93,0,0,1-4.4,15.15,22,22,0,0,1-7.38,6.48A18.65,18.65,0,0,1,1122,816.35Z" transform="translate(-116.44 -172.48)"/><path class="cls-1" d="M1117.48,886.15c-.32-.18,5.4-2,13.55-1.41a64.48,64.48,0,0,1,12.8,2.24,101.69,101.69,0,0,1,11.51,4.15c-3.28-1.32-7-3.44-11.06-5.37a113.94,113.94,0,0,0-12.4-5.17c-8.08-2.92-15.37-3.36-15.06-3.65a34,34,0,0,1,16.93-8,39.26,39.26,0,0,1,16.38.65,39.78,39.78,0,0,1,7,2.48l1.41.68,1.16.63c.83.45,1.58.9,2.41,1.41a55.6,55.6,0,0,1,9.19,7.08,46.85,46.85,0,0,1,11.56,16.61,26.73,26.73,0,0,1,1.59,6,18.41,18.41,0,0,1,.17,2.24s-3.27.07-7.81.64-10.47,1.57-17.27,1.5a46.57,46.57,0,0,1-11.09-1.42c-1-.24-2-.58-3.08-.92l-1.62-.6-1.4-.56a47.1,47.1,0,0,1-4.74-2.32,53.27,53.27,0,0,1-9.27-6.79C1125.15,893.43,1121.93,890,1117.48,886.15Z" transform="translate(-116.44 -172.48)"/><path class="cls-1" d="M1002.12,903.1c-.12-.11,1.07-.51,3.28-1a38,38,0,0,1,9.48-.23,68.42,68.42,0,0,1,23.2,6.52c-6-3-14.53-7.74-22.31-10.49a64.22,64.22,0,0,0-10.25-2.87c-2.77-.37-4.52-.57-4.37-.71a31.84,31.84,0,0,1,16.63-7.57,38.13,38.13,0,0,1,15.55.81,41.21,41.21,0,0,1,21.2,13.77,45.58,45.58,0,0,1,8.82,17,32.3,32.3,0,0,1,1.06,5.73c.13,1.37.12,2.13.12,2.13l-2.14.07-5.53.08a124.52,124.52,0,0,1-16.86-.78,50.35,50.35,0,0,1-19-6,48.07,48.07,0,0,1-8.94-6.69C1009.09,910.12,1006.23,906.69,1002.12,903.1Z" transform="translate(-116.44 -172.48)"/><path class="cls-1" d="M1114.66,939.42c0-.13.88.09,2.52.57a29.64,29.64,0,0,1,6.19,3.28A45.72,45.72,0,0,1,1135.73,956c-2.62-4.22-6.34-10.36-10.37-14.92a49.32,49.32,0,0,0-5.54-5.53,13.12,13.12,0,0,1-2.48-2,23.66,23.66,0,0,1,13.32,1.12,27.56,27.56,0,0,1,9.78,6.27,29.86,29.86,0,0,1,8.39,17.19,30.4,30.4,0,0,1-1.5,14.35,20.29,20.29,0,0,1-1.87,3.91,14.33,14.33,0,0,1-.87,1.3l-1.3-.91c-.79-.58-1.9-1.38-3.29-2.32-2.71-1.89-6.3-4.25-9.8-7.08a35.12,35.12,0,0,1-12.57-18C1116.69,946.53,1116,943.29,1114.66,939.42Z" transform="translate(-116.44 -172.48)"/><path class="cls-1" d="M1099.85,981.21c.09-.16,1,3,1.23,7.32a39.65,39.65,0,0,1-1.3,13.2,131,131,0,0,0,3.52-13c1-4.35,1.23-8,1.4-7.81a21.52,21.52,0,0,1,5.87,16.18,22.22,22.22,0,0,1-5.73,13.24,19.29,19.29,0,0,1-9.56,5.93,11.76,11.76,0,0,1-3.29.35c-.76,0-1.16-.09-1.16-.09l.12-1.18a23.88,23.88,0,0,0,.17-2.92c0-2.38-.27-5.32-.4-8.47a27.16,27.16,0,0,1,1.36-10.25C1093.32,989.94,1095.76,986.1,1099.85,981.21Z" transform="translate(-116.44 -172.48)"/><path class="cls-1" d="M895.28,974.46c-.23-.15,4.72-1.24,11.31-1.26a64.31,64.31,0,0,1,20,3.18c-5.32-1.91-12.94-4.82-19.56-6.55s-12-2.55-11.76-2.79a33.3,33.3,0,0,1,12.64-6.67,32.49,32.49,0,0,1,12.61-.8,34.63,34.63,0,0,1,18.76,9,45.91,45.91,0,0,1,9.32,12.24,44.19,44.19,0,0,1,2.7,6,46.67,46.67,0,0,1-6.26,1.91,65.75,65.75,0,0,1-14.72,1.79,42.62,42.62,0,0,1-16.8-3C908,985.11,902.54,981.15,895.28,974.46Z" transform="translate(-116.44 -172.48)"/><path class="cls-1" d="M963.56,960.76c-.24-.13,4.58-1,11,.71A56.57,56.57,0,0,1,993,970.09c-4.61-3.36-11-8.49-17.17-11.82-6-3.53-11.87-4.71-11.56-5a27.3,27.3,0,0,1,14.7-4.08,32.37,32.37,0,0,1,13,2.85,35.09,35.09,0,0,1,15.48,14A49.79,49.79,0,0,1,1013,980.3a55.72,55.72,0,0,1,1.19,6.46,38.48,38.48,0,0,1-6.62.35,59.46,59.46,0,0,1-15-2.32A42.44,42.44,0,0,1,977.18,977a40.11,40.11,0,0,1-6.41-6.72C968.68,967.63,966.62,964.46,963.56,960.76Z" transform="translate(-116.44 -172.48)"/><path class="cls-1" d="M1146.83,632.87c-.18,0,1.1-.79,2.72-2.22a21.81,21.81,0,0,0,4.39-6.53c2.52-5.37,3.88-12.1,5.2-16.7-1.29,4.57-4.11,11-7.64,15.17a14.19,14.19,0,0,1-4.86,4c-1.34.45-2,.49-2,.41a12.17,12.17,0,0,0,.34-2.39c0-.84,0-1.56-.08-2.16-.11-1.49-.23-2.63-.28-4a30.09,30.09,0,0,1,.58-7.36,35.74,35.74,0,0,1,6-13.11,54.2,54.2,0,0,1,8.41-9.31,35.83,35.83,0,0,1,4.4-3.36,43,43,0,0,1,2.76,4.78,39.13,39.13,0,0,1,3.9,12.35,29.17,29.17,0,0,1-2.85,17.31,26.61,26.61,0,0,1-7.33,8.92,22.48,22.48,0,0,1-6,3.43,21.47,21.47,0,0,1-3.73.9A16.06,16.06,0,0,1,1146.83,632.87Z" transform="translate(-116.44 -172.48)"/><path class="cls-1" d="M1374.37,697.34c-.21-.2,4.48-.86,10.52-1.51s13.38-1.34,18.49-1.49a112.43,112.43,0,0,1-18.42-1.59c-6-.94-10.6-2-10.39-2.12,14.17-11.55,26.68-10.52,36-7.32a81.85,81.85,0,0,1,11.4,5.27c.79.41,1.32.68,2,1a14.56,14.56,0,0,0,1.58.64,9.32,9.32,0,0,0,1.55.36,5.85,5.85,0,0,1-.42,1.59,8.35,8.35,0,0,1-1,1.81,17,17,0,0,1-1.63,2.16,35,35,0,0,1-12,8.56C1401.69,709.25,1387.6,709.84,1374.37,697.34Z" transform="translate(-116.44 -172.48)"/><path class="cls-1" d="M848.06,256.37c0,.29-3.25-2.42-7.91-4.5a57.17,57.17,0,0,0-7.49-2.68c-2.56-.67-5-1.22-7.06-1.65a33,33,0,0,1,6.8,2.37,34,34,0,0,1,6.44,4.09c3.7,3,5.45,6.2,5.27,6.13-7.07-.23-11.28.16-15.18-.68a33.11,33.11,0,0,1-10.76-4.39,68.43,68.43,0,0,1-8.59-6.15,47.28,47.28,0,0,1-3.52-3.24,26.51,26.51,0,0,1,3.71-3.1,29.08,29.08,0,0,1,10.57-4.74,24.4,24.4,0,0,1,16,1.9,22.85,22.85,0,0,1,7.71,6.38A20.09,20.09,0,0,1,848.06,256.37Z" transform="translate(-116.44 -172.48)"/><path class="cls-1" d="M844.24,358.81c-.18-.29,4.86.11,11.15-.32a93.19,93.19,0,0,0,9.87-1.16c3.27-.62,6.36-1.33,8.87-2a35.45,35.45,0,0,1-9,1.08,51.52,51.52,0,0,1-9.58-1c-5.93-1.17-10.17-3.15-9.93-3.24,15.44-9.38,23-9.93,31.14-9.42a68.64,68.64,0,0,0,11.54-.13c1.75-.11,3.07-.45,4.13-.58l1.64-.25a14.43,14.43,0,0,1,.21,1.62,18.32,18.32,0,0,1-.12,4.59,24.31,24.31,0,0,1-7.65,14.24A29.27,29.27,0,0,1,866.18,370,28.57,28.57,0,0,1,844.24,358.81Z" transform="translate(-116.44 -172.48)"/><path class="cls-1" d="M978.69,533.89a2.27,2.27,0,0,0,.19-.34l0,0a.06.06,0,0,0,0,0h0a3.24,3.24,0,0,1,.29-.72c0-.06,0-.1,0-.16-.49.69-.52,1-.41,1-.07.1-.2.3-.4.64A3.48,3.48,0,0,0,978.69,533.89Z" transform="translate(-116.44 -172.48)"/><path class="cls-1" d="M1009,282c-.18.09-.35.21-.54.29C1009,282,1009.1,282,1009,282Z" transform="translate(-116.44 -172.48)"/><path class="cls-1" d="M1001.73,284Z" transform="translate(-116.44 -172.48)"/><path class="cls-1" d="M1109.16,326.34a.15.15,0,1,0,0,.3A.15.15,0,0,0,1109.16,326.34Z" transform="translate(-116.44 -172.48)"/><path class="cls-1" d="M610.33,533.47h0s0,0,0,0l0,0a1.59,1.59,0,0,0,.18.34,3.65,3.65,0,0,0,.27.3c-.2-.34-.34-.54-.41-.64.11,0,.08-.27-.41-1a.88.88,0,0,1,0,.16A4,4,0,0,1,610.33,533.47Z" transform="translate(-116.44 -172.48)"/><path class="cls-1" d="M587.52,284Z" transform="translate(-116.44 -172.48)"/><path class="cls-1" d="M580.8,282.25c-.18-.08-.35-.2-.54-.29S580.27,282,580.8,282.25Z" transform="translate(-116.44 -172.48)"/><path class="cls-1" d="M480.1,326.34a.15.15,0,0,0,0,.3A.15.15,0,0,0,480.1,326.34Z" transform="translate(-116.44 -172.48)"/><path class="cls-1" d="M293.28,527.62c.32-.1-3.82-3-7.78-7.72s-7.82-10.76-10.8-14.8a57.15,57.15,0,0,0,12.82,12.55c4.78,3.29,9,4.37,8.89,4.18-1.28-4.12-2.13-7.43-3.09-10.27a34.17,34.17,0,0,0-3.4-7.62,36,36,0,0,0-11.52-11.45,35.59,35.59,0,0,0-13.12-5.17,25.27,25.27,0,0,0-4.31-.38c-1,0-1.58,0-1.58,0s.12,2.33.42,5.7a76.8,76.8,0,0,0,1.9,12.53,31.58,31.58,0,0,0,8.67,15.06,29.32,29.32,0,0,0,9.76,6.13A25.35,25.35,0,0,0,293.28,527.62Z" transform="translate(-116.44 -172.48)"/><path class="cls-1" d="M229.32,794c.34.14-1.24-5.7-2.58-13.08s-2.82-16.32-4.27-22.44a113.55,113.55,0,0,0,7.86,21.25c3.17,6.66,6.46,11.25,6.53,10.94,3.58-10.31,4.73-18.3,3.74-25.62a43.71,43.71,0,0,0-7.5-18.94,61.25,61.25,0,0,0-11.28-12.38,47.38,47.38,0,0,0-5.88-4.29,54.1,54.1,0,0,0-3.49,6.37,57.8,57.8,0,0,0-5,16,40.74,40.74,0,0,0,2.38,21.6A39.87,39.87,0,0,0,229.32,794Z" transform="translate(-116.44 -172.48)"/><path class="cls-1" d="M390.93,682.39c.1.28,2.76-4,5.6-10a147,147,0,0,0,7.6-18.66c-1.64,5.34-3.17,13.21-4.41,19.71s-2.23,11.65-2,11.51c8.81-4.83,14.09-11.3,17-17.62a37.25,37.25,0,0,0,3.07-18.27,61.45,61.45,0,0,0-2.9-14.29,60.7,60.7,0,0,0-2.26-6,35.93,35.93,0,0,0-5.72,3,46.87,46.87,0,0,0-11.29,10.1A37.58,37.58,0,0,0,387.73,659C386.58,665.72,387.37,673.25,390.93,682.39Z" transform="translate(-116.44 -172.48)"/><path class="cls-1" d="M458.31,581.23c.26.15-.84-4.9-4-11.06a85.59,85.59,0,0,0-11.66-17.71c3.93,4.41,10,10.37,14.61,15.73s7.94,10.13,8.05,9.8a34.7,34.7,0,0,0,.38-15,35.28,35.28,0,0,0-4.6-11.87,37.42,37.42,0,0,0-15.74-13.94,46.63,46.63,0,0,0-15.57-4.33,37.19,37.19,0,0,0-6.86-.14,65.88,65.88,0,0,0,.74,6.75,70.92,70.92,0,0,0,3.9,14.8,42,42,0,0,0,10.09,15.46,40.81,40.81,0,0,0,8.62,6.2A103.18,103.18,0,0,0,458.31,581.23Z" transform="translate(-116.44 -172.48)"/><path class="cls-1" d="M374.5,580.56c.36.22-.43-5.94.82-13.19s3.81-15.48,5.13-21.36c-1.33,5.85-2.31,14.58-1.51,21.45s3.17,11.47,3.22,11.2c2.63-4.39,5-7.62,6.84-10.64a39.18,39.18,0,0,0,4.34-9,42.56,42.56,0,0,0,1.41-19.73,39.81,39.81,0,0,0-6-16.07,26.31,26.31,0,0,0-3.29-4.06,18.9,18.9,0,0,0-1.37-1.31L379.53,523a116.47,116.47,0,0,0-9.47,11.53,38.21,38.21,0,0,0-6.79,19.34,35.36,35.36,0,0,0,2,13.7A29.21,29.21,0,0,0,374.5,580.56Z" transform="translate(-116.44 -172.48)"/><path class="cls-1" d="M369.32,466.59c.42,0-3.92-5.52-9.4-12.5s-12.18-15.4-17.39-20.78a186.32,186.32,0,0,0,20.54,17.56c7.05,5.28,12.89,8.85,12.83,8.46-1.37-13.13-5.16-22.62-10.63-29.86a50.71,50.71,0,0,0-19.58-15.37,68.14,68.14,0,0,0-19.32-5.5,53.86,53.86,0,0,0-8.65-.53,67,67,0,0,0,.59,8.61,74.49,74.49,0,0,0,4.94,19.18,49.64,49.64,0,0,0,15,20.22C345.63,461.88,355.87,466.25,369.32,466.59Z" transform="translate(-116.44 -172.48)"/><path class="cls-1" d="M431.85,358.62c.2.06-.11-1.32-.81-3.85-.52-1.19-1.19-2.64-2.06-4.26a38.56,38.56,0,0,0-3.65-4.92c-5.79-6.92-15.9-12.93-23.31-15.69,7.41,2.8,18.3,6.46,26.46,12.09a54.86,54.86,0,0,1,5.57,4.25c1.56,1.51,2.93,3,4.08,4.19,2,2.69,3.28,4.37,3.33,4.14,1.82-7.68-.22-15.88-3.74-22.2a42.3,42.3,0,0,0-13.4-14.52,47.16,47.16,0,0,0-29.28-7.8,59.41,59.41,0,0,0-21.22,5.48,54.24,54.24,0,0,0-8.06,4.48,77.31,77.31,0,0,0,5.44,7.37,108.67,108.67,0,0,0,14.42,14.53c5.91,4.87,12.53,9.14,19.71,11.5a56.07,56.07,0,0,0,11.48,2.41C420.94,356.39,425.75,356.5,431.85,358.62Z" transform="translate(-116.44 -172.48)"/><path class="cls-1" d="M489.2,371.25c.41.27-.18-7.11,1.57-15.71,1.48-8.66,4.72-18.51,6.54-25.49a81.89,81.89,0,0,0-2.21,25.7c.56,8.37,3.3,14,3.38,13.64,3.37-5.1,6.37-9,8.68-12.7a50.45,50.45,0,0,0,5.36-10.91,52.48,52.48,0,0,0,2.24-22.34,68.41,68.41,0,0,0-4.58-18.8,45.15,45.15,0,0,0-3.76-7.5,81.08,81.08,0,0,0-6.87,4.64,68.14,68.14,0,0,0-13.77,13.3,45.06,45.06,0,0,0-9.26,24.11,41.64,41.64,0,0,0,2.14,16.26A36.46,36.46,0,0,0,489.2,371.25Z" transform="translate(-116.44 -172.48)"/><path class="cls-1" d="M526.32,460.34c.17.23,1.3-4.35,4-9.17,2.58-4.93,6.45-10.26,9-14a48,48,0,0,0-6.43,15c-1.31,5.17-.79,9.05-.65,8.87,3-2.38,5.6-4.12,7.73-5.94a33.27,33.27,0,0,0,5.35-5.52A34,34,0,0,0,551,437.26,74.1,74.1,0,0,0,553,425.87c.3-3.11.36-5.22.36-5.22A23.2,23.2,0,0,0,548,421a32,32,0,0,0-12,4.53,28,28,0,0,0-11,13,26,26,0,0,0-1.9,10.24A23.26,23.26,0,0,0,526.32,460.34Z" transform="translate(-116.44 -172.48)"/><path class="cls-1" d="M571.58,337.18c.14.12.36-1.15.65-3.47,0-1.16-.05-2.58-.15-4.21a36.45,36.45,0,0,0-1.19-5.31c-2.19-7.68-8-16.25-12.91-21.28,4.85,5.07,12.21,12,16.75,19.52a52.75,52.75,0,0,1,3,5.42c.69,1.78,1.34,3.42,1.81,4.81.7,2.85,1.17,4.64,1.29,4.47,4.08-5.56,5.4-12.78,4.87-19.12a38,38,0,0,0-5.37-16.46,42.33,42.33,0,0,0-20-17A60.25,60.25,0,0,0,542,280.29c-4.86-.4-8.08-.31-8.08-.31a43.72,43.72,0,0,0,.75,8.15,74.49,74.49,0,0,0,5.54,17.8,54.05,54.05,0,0,0,11.71,17.14,48.4,48.4,0,0,0,8.44,6.29C563.46,331.37,567.32,333.29,571.58,337.18Z" transform="translate(-116.44 -172.48)"/><path class="cls-1" d="M615.65,278.16c0,.1.11-.22.47-1l1.27-2.6c1-2.08,2.48-5,4.1-8.3,3.19-6.55,6.71-14.67,8.82-20.46-2.11,5.79-3.93,14.48-5.3,21.62s-2,12.81-1.4,12.11a17.28,17.28,0,0,0,3-1.76c1-.7,2-1.43,3-2.17A47.62,47.62,0,0,0,634.7,271a38.66,38.66,0,0,0,6.93-10,42.6,42.6,0,0,0,4-19.17,93.43,93.43,0,0,0-1.71-15.52c-.75-4.11-1.41-6.87-1.41-6.87a29.89,29.89,0,0,0-6.83,2.35A44.14,44.14,0,0,0,621.84,232,40,40,0,0,0,612,251.2a40.48,40.48,0,0,0-.39,12.16,46.23,46.23,0,0,0,1.34,6.92c.33,1.2.71,2.43,1.15,3.69S614.93,276.5,615.65,278.16Z" transform="translate(-116.44 -172.48)"/><path class="cls-1" d="M583.36,263.2c.28.09-2.28-4.81-7.22-10.17a85.63,85.63,0,0,0-17.29-14.32c5.35,3.25,13.36,7.33,19.71,11.44s11,8.11,11,7.72a35.7,35.7,0,0,0-4-15.49,37.36,37.36,0,0,0-8.53-10.81,39.88,39.88,0,0,0-19.79-9.08A69,69,0,0,0,541,222c-4.29.32-7.14.81-7.14.81a36,36,0,0,0,1.75,7.09,52.26,52.26,0,0,0,8.16,15,44.35,44.35,0,0,0,15.44,12.9,42,42,0,0,0,10.43,3.48A130.66,130.66,0,0,0,583.36,263.2Z" transform="translate(-116.44 -172.48)"/><path class="cls-1" d="M530.77,557c.41.18-1.56-5.36-.1-11.77,1.17-6.4,4.86-12.91,7.21-17.48-2.37,4.54-4.64,11.89-4.11,17.69.3,5.87,3.3,9.09,3.2,8.86a31.1,31.1,0,0,1,5.41-8.11,32.88,32.88,0,0,0,4.2-5.77,40.93,40.93,0,0,0,4.48-14.24,51.59,51.59,0,0,0,.17-13.82,27.23,27.23,0,0,0-1.35-5.88s-2.25.72-5.53,2a46.73,46.73,0,0,0-11.92,6.78,30.53,30.53,0,0,0-10.56,16.47A27,27,0,0,0,522,545,19.83,19.83,0,0,0,530.77,557Z" transform="translate(-116.44 -172.48)"/><path class="cls-1" d="M584.59,645.44c.22,0-.75-1.51-2-4a36.13,36.13,0,0,1-2.51-10.1c-1-7.88.11-17.07.61-23.45-.52,6.36.31,15.79,3.14,22.53a23.27,23.27,0,0,0,4.43,7.43c1.52,1.33,2.39,1.89,2.41,1.75.67-4.83,2.57-8.19,3.66-11.51a44.91,44.91,0,0,0,2.34-9.53,49.29,49.29,0,0,0-1.53-18.27,137.19,137.19,0,0,0-5-15c-.76-2-1.4-3.69-1.81-4.87s-.7-1.91-.7-1.91a16.49,16.49,0,0,0-1.88.74A26.72,26.72,0,0,0,580.9,582a41.56,41.56,0,0,0-12.2,13.73,38.31,38.31,0,0,0-4.56,24.12,35,35,0,0,0,5.6,14.54,30.19,30.19,0,0,0,6.11,6.71,29,29,0,0,0,4.07,2.66A26.26,26.26,0,0,0,584.59,645.44Z" transform="translate(-116.44 -172.48)"/><path class="cls-1" d="M681.13,482.32c.27-.06-1.25-1-2.85-3.38a17,17,0,0,1-2.1-4.63,28.86,28.86,0,0,1-.89-5.71c-.43-8,1.44-16.94,2.34-23.26-.93,6.27-.85,15.73,1.43,22.55a20,20,0,0,0,2,4.32,9.11,9.11,0,0,0,2.31,2.44c1.6,1.13,2.83,1.17,2.77,1.08-.31-2.08.06-4.43,1.08-5.52a39,39,0,0,0,2.39-4.06,34.66,34.66,0,0,0,3.08-8.94,48.23,48.23,0,0,0-.29-18.86,89.89,89.89,0,0,0-4.73-15.59c-1.62-4-2.84-6.68-2.84-6.68a30.77,30.77,0,0,0-6.46,3.79,47.07,47.07,0,0,0-12.06,13,38.66,38.66,0,0,0-5.94,23,35.77,35.77,0,0,0,4.51,15.17,27.91,27.91,0,0,0,6.39,7.8A13.62,13.62,0,0,0,681.13,482.32Z" transform="translate(-116.44 -172.48)"/><path class="cls-1" d="M721,605.69c.21.11-1.51-4.08-5.7-8.37a45.43,45.43,0,0,0-7.39-6.09,49.27,49.27,0,0,0-8-4.25c4.82,1.94,11.85,4.54,17.3,7.88s9.14,7.07,9.2,6.72a25.4,25.4,0,0,0-3.5-13.33,29.22,29.22,0,0,0-8.4-9,31.59,31.59,0,0,0-18.45-5.41,47,47,0,0,0-13.66,2.48,53.62,53.62,0,0,0-5.6,2.14,33.89,33.89,0,0,0,2.86,5.32,52.64,52.64,0,0,0,9,10.53A39.78,39.78,0,0,0,702,602.48a37.36,37.36,0,0,0,8.09,1.82C713.09,604.74,716.59,605,721,605.69Z" transform="translate(-116.44 -172.48)"/><path class="cls-1" d="M441.73,512c.21,0-2.21-3-6-6.28a54.75,54.75,0,0,0-13.06-8.28c4,1.66,9.78,3.85,14.46,6.1s8.24,4.35,8.21,4.09A25.38,25.38,0,0,0,434.56,491a26.79,26.79,0,0,0-14.94-4.44,36.12,36.12,0,0,0-11.51,2,34.37,34.37,0,0,0-4.61,1.89,35.14,35.14,0,0,0,2.46,4.34,48.34,48.34,0,0,0,7.29,8.67,31.77,31.77,0,0,0,11.27,7C429,512,434.21,512.45,441.73,512Z" transform="translate(-116.44 -172.48)"/><path class="cls-1" d="M309.56,575.79c.2,0-3.55-1.35-8.78-.46a30.77,30.77,0,0,0-8,2.61,33,33,0,0,0-6.7,4.4c1.72-1.55,3.91-3.33,6.26-5.13a47.11,47.11,0,0,1,7.66-4.55c5.22-2.45,10.14-2.68,9.9-2.94A20.16,20.16,0,0,0,298,565.13a24.75,24.75,0,0,0-11.42,2.31,26.68,26.68,0,0,0-12.82,13.31,29.84,29.84,0,0,0-2.48,12.94,23.8,23.8,0,0,0,.69,5.37s2.09-.46,5.13-1.35A106.52,106.52,0,0,0,288,593.9a37.63,37.63,0,0,0,10.71-6.32,34.88,34.88,0,0,0,4.57-4.9A68.85,68.85,0,0,1,309.56,575.79Z" transform="translate(-116.44 -172.48)"/><path class="cls-1" d="M241.09,560.65c.18-.18-3.8-.75-8.75-2a62.63,62.63,0,0,1-7.65-2.51,61.48,61.48,0,0,1-6.6-3.28,25.53,25.53,0,0,0,6.83,2.53,35.85,35.85,0,0,0,7.73.74c4.88-.09,8.62-.9,8.44-1a65.61,65.61,0,0,0-13-9.53c-3.23-1.73-6.24-2.38-9.83-3.27s-7.28-1.6-10.12-2.08-4.78-.66-4.78-.66a26,26,0,0,0,3.8,16.44,23,23,0,0,0,14.59,10A22.5,22.5,0,0,0,241.09,560.65Z" transform="translate(-116.44 -172.48)"/><path class="cls-1" d="M342.23,719.59c.13.1.22-1.08.28-3.2-.12-1.06-.2-2.36-.46-3.82a37,37,0,0,0-1.25-4.78,60.33,60.33,0,0,0-11-19.44c4.09,4.75,10.28,11.32,14.39,17.81,1.11,1.56,1.93,3.21,2.78,4.66s1.35,2.91,1.91,4.07c.85,2.44,1.42,4,1.51,3.79A28.65,28.65,0,0,0,353.87,702,35,35,0,0,0,349.66,688a38.25,38.25,0,0,0-17-15.93,46.68,46.68,0,0,0-16.75-4.4,38,38,0,0,0-7.3,0s.21,2.88,1,7.14a86,86,0,0,0,4.31,15.52,47.16,47.16,0,0,0,9.74,15.85,45.22,45.22,0,0,0,7.85,6.41C334.49,714.65,338.12,716.51,342.23,719.59Z" transform="translate(-116.44 -172.48)"/><path class="cls-1" d="M252.77,673.46c.19,0-.24-1.2-1.12-3.48-.59-1-1.4-2.28-2.38-3.69a31.2,31.2,0,0,0-4.08-4c-6.45-5.55-17-9.35-24.26-10.89,7.34,1.59,18.11,3,26.65,7a45.7,45.7,0,0,1,5.87,3.21c1.66,1.25,3.18,2.45,4.39,3.51,2.19,2.35,3.58,3.84,3.6,3.62,1-7.47-2.22-15.26-6.69-20.73a40.22,40.22,0,0,0-15.06-11.46,45.54,45.54,0,0,0-27.39-2.88,80.51,80.51,0,0,0-18.37,6.38l-7.73,3.6s.33.78,1.07,2.12a35.09,35.09,0,0,0,3.69,5.37,63.44,63.44,0,0,0,15.69,13.47c6.63,4.09,14,7.19,21.25,8.23a46.45,46.45,0,0,0,10.88.26C242.52,672.9,246.82,672.1,252.77,673.46Z" transform="translate(-116.44 -172.48)"/><path class="cls-1" d="M203.9,848c.27,0-3.21-3.23-8.88-5.9s-13.16-4.87-18.58-5A120.13,120.13,0,0,1,196,839.05c6.44,1.13,11.43,3.14,11.34,2.81a29.49,29.49,0,0,0-19-17.18,31.67,31.67,0,0,0-21.47,1.5,27.62,27.62,0,0,0-12.47,10.55,18.31,18.31,0,0,0-2,4.3,16.1,16.1,0,0,0-.47,1.63l1.67.43c1.05.28,2.44.58,4.15,1.18,3.34,1,7.38,2.73,11.6,4.33a40.37,40.37,0,0,0,14.19,3C189,851.8,195.05,850.44,203.9,848Z" transform="translate(-116.44 -172.48)"/><path class="cls-1" d="M155.49,763c.22-.09-3.12-2.06-7.7-4.23s-10.18-4.72-14.13-6.35a83.78,83.78,0,0,0,14.94,3.9c5,.9,8.94,1.62,8.83,1.42a31.73,31.73,0,0,0-13.15-12.93,29.78,29.78,0,0,0-12.7-3.08c-3.91-.13-7.5.17-10.33.24-1.44.08-2.59.06-3.45.07l-1.36,0a11.16,11.16,0,0,0,.06,1.34,16.43,16.43,0,0,0,.69,3.67,25.47,25.47,0,0,0,6.44,10.65,27.2,27.2,0,0,0,13.57,7.57C142.64,766.42,148.58,765.78,155.49,763Z" transform="translate(-116.44 -172.48)"/><path class="cls-1" d="M390.76,838.82c.25-.41-6.56.52-14.45-1.38a74.51,74.51,0,0,1-11.89-4c-3.81-1.68-7.39-3.4-10.36-4.76a60.72,60.72,0,0,0,10.74,3.61,47.66,47.66,0,0,0,11.89,1.23c7.47-.25,12.37-3,12.08-3A114.55,114.55,0,0,1,378,822.67a44.49,44.49,0,0,0-8.13-5.48,49.81,49.81,0,0,0-19.11-5.12,52.88,52.88,0,0,0-17.93,1.51,34.77,34.77,0,0,0-5.29,1.87c-1.21.54-1.85.91-1.85.91l.95,1.84,2.62,4.69a74.71,74.71,0,0,0,9.68,13.8,39.45,39.45,0,0,0,20.68,12,36.21,36.21,0,0,0,16.07-.3A29,29,0,0,0,390.76,838.82Z" transform="translate(-116.44 -172.48)"/><path class="cls-1" d="M323.22,906c.28.09-3.83-3.24-10.85-3.06a33.68,33.68,0,0,0-11,2.2,49.71,49.71,0,0,0-9.58,4.82c5.16-3.38,12.44-8.64,20-10.7a37.45,37.45,0,0,1,5.42-1.06c1.71,0,3.3-.22,4.59-.11,2.58.26,4.21.4,4.1.25-3.33-5-9.19-8.38-15.15-9.44a32.35,32.35,0,0,0-16.18,1.43,36.57,36.57,0,0,0-18.25,14.54,63.07,63.07,0,0,0-6.76,14.63c-.67,2-1.22,3.65-1.6,4.81s-.59,1.88-.59,1.88.65.23,1.87.54a31.34,31.34,0,0,0,5.29.82,54.38,54.38,0,0,0,16.85-1.62A48.85,48.85,0,0,0,308,918.71a36.85,36.85,0,0,0,6.17-5.59A32.56,32.56,0,0,1,323.22,906Z" transform="translate(-116.44 -172.48)"/><path class="cls-1" d="M253.21,895.84c.15-.18-3.81-.1-8.87,1.23s-11.06,3.71-14.67,6.39a127.61,127.61,0,0,1,13.67-8.89c4.66-2.68,8.73-4.31,8.51-4.44-15.26-7-28.88,1-34.17,11.28-2.75,5.13-3.11,10.8-2,14.21a11,11,0,0,0,1.72,3.71,9.69,9.69,0,0,0,.86,1.1l1.11-.91a14.94,14.94,0,0,1,2.86-1.91c2.4-1.36,5.54-2.14,8.89-3.13a31.87,31.87,0,0,0,10.66-5.2C245.49,906.52,249.08,902.3,253.21,895.84Z" transform="translate(-116.44 -172.48)"/><path class="cls-1" d="M563.7,736.1c.2-.21-4.44-.77-10.25-1.86A171.86,171.86,0,0,1,536,730c4.75,1.41,11.88,1.78,17.6,1.28s10.1-1.5,9.89-1.64c-13.26-11.17-22-12-30.66-11.64l-17.27,1.15s0,.55.15,1.54a21.49,21.49,0,0,0,.95,4.17A27.35,27.35,0,0,0,524.74,737a28.52,28.52,0,0,0,39-.85Z" transform="translate(-116.44 -172.48)"/><path class="cls-1" d="M186.13,760.62c.34-.12-3.84-2.48-6.78-7.14s-4.78-10.62-6.14-14.75c1.33,4.13,4.38,9.84,8.13,13s7.38,3.78,7.21,3.67a33.68,33.68,0,0,1-1.56-8.3,28.85,28.85,0,0,0-1-6.06,34.38,34.38,0,0,0-6-11.37,37.5,37.5,0,0,0-8.66-8.21,23.37,23.37,0,0,0-3.27-1.83,13.52,13.52,0,0,0-1.27-.52s-.73,1.87-1.7,4.66a45.56,45.56,0,0,0-2.59,11,25.88,25.88,0,0,0,3.62,15.86,23.14,23.14,0,0,0,7.94,7.82A17.45,17.45,0,0,0,186.13,760.62Z" transform="translate(-116.44 -172.48)"/><path class="cls-1" d="M319.59,778.76c.25.08-2-4.21-6.71-8.63a54.48,54.48,0,0,0-8-6.34,48.16,48.16,0,0,0-8.55-4.37c2.6,1,5.75,2.14,9,3.46a103.49,103.49,0,0,1,9.53,4.56c5.93,3.2,10.11,6.82,10.13,6.45a29.26,29.26,0,0,0-4.32-13.71,31.29,31.29,0,0,0-8.91-9.21,33.07,33.07,0,0,0-20.51-5.39,37,37,0,0,0-15,4.31,30.1,30.1,0,0,0-5.4,3.57s1.58,2,4.15,4.8a107.06,107.06,0,0,0,10,9.63,42.54,42.54,0,0,0,13.68,8C304,777.73,310.14,778.12,319.59,778.76Z" transform="translate(-116.44 -172.48)"/><path class="cls-1" d="M270.36,712.84c.14-.22-4.2.14-9.51-.06s-11.71-.6-16.16-.35a98.7,98.7,0,0,0,15.88-2.32c5.09-1.17,8.64-2.87,8.44-3-6.59-3.86-11.67-6-17-6.39a30.74,30.74,0,0,0-25.15,10.56,21.61,21.61,0,0,0-2.21,3.15c-.45.78-.66,1.24-.66,1.24l1.27.63,3.28,1.57a84.49,84.49,0,0,0,10.22,4.27,29.71,29.71,0,0,0,14.42,1.13,28.39,28.39,0,0,0,8.77-3.15A27.59,27.59,0,0,0,270.36,712.84Z" transform="translate(-116.44 -172.48)"/><path class="cls-1" d="M344.76,645.4c.21.1-1.29-4-4.49-8.68a53.49,53.49,0,0,0-12.15-12.62c4,2.82,9.86,6.74,14.34,10.64s7.62,7.48,7.69,7.18a27.75,27.75,0,0,0-1.36-12.42,28.4,28.4,0,0,0-5.73-9.45,30,30,0,0,0-15.67-8.82,43.74,43.74,0,0,0-18.82.41,39.25,39.25,0,0,0,1.69,5.41,54.75,54.75,0,0,0,6,11.38,36.59,36.59,0,0,0,10.52,10.4C331.16,641.61,336.52,643.35,344.76,645.4Z" transform="translate(-116.44 -172.48)"/><path class="cls-1" d="M312.75,501.79c.37,0-2.71-4.61-4.31-10.93-1.82-6.25-2.62-13.86-3.53-19.1a56.08,56.08,0,0,0,6.47,17.85c3.05,5.36,6.81,7.95,6.73,7.71.43-4.45,1.2-7.88,1.57-11a36.81,36.81,0,0,0,.23-8.72,38.92,38.92,0,0,0-5.32-15.68,46.82,46.82,0,0,0-9-11.27,28.12,28.12,0,0,0-5-3.71s-1.3,2.07-3,5.31a54.66,54.66,0,0,0-5,13,33.15,33.15,0,0,0,1.16,19,30.44,30.44,0,0,0,6.62,10.42A25.38,25.38,0,0,0,312.75,501.79Z" transform="translate(-116.44 -172.48)"/><path class="cls-1" d="M384.19,370.89c.14-.13-1.37-.33-3.77-.85s-5.6-1.42-9.06-2.52a112.86,112.86,0,0,0-11-3.13,38.61,38.61,0,0,0-10.5-.75,101.8,101.8,0,0,1,10.64-.37c3.88.12,7.9.48,11.47.64a50.65,50.65,0,0,0,8.76-.23c2.11-.29,3.25-.69,3.15-.77-3.72-3.49-6.43-6.53-9.79-9a30.69,30.69,0,0,0-11.65-5.4,33,33,0,0,0-7.18-.79,34.32,34.32,0,0,0-6.27.63,36.26,36.26,0,0,0-10,3.54,67.29,67.29,0,0,0-12.7,9.26c-3.09,2.7-5.16,4.61-5.16,4.61a27.57,27.57,0,0,0,5.43,4.69A50.49,50.49,0,0,0,342,377.19a54.68,54.68,0,0,0,16.85,2A61.81,61.81,0,0,0,370,377.64,34.78,34.78,0,0,0,384.19,370.89Z" transform="translate(-116.44 -172.48)"/><path class="cls-1" d="M450.29,310c.28.23.49-5.16,2.16-11.48s4.38-13.58,6.12-18.68a60.52,60.52,0,0,0-2.9,19.06c.05,6.25,1.56,10.73,1.67,10.5,2.91-3.6,5.35-6.47,7.27-9.19a37.68,37.68,0,0,0,4.52-7.93,39.62,39.62,0,0,0,2.8-16.33,55.76,55.76,0,0,0-2.2-14.14,38.94,38.94,0,0,0-2.19-5.86,51.4,51.4,0,0,0-5.5,2.91A47.86,47.86,0,0,0,450.85,268a33.43,33.43,0,0,0-8.24,17.67,31.23,31.23,0,0,0,.82,12.18A28.76,28.76,0,0,0,450.29,310Z" transform="translate(-116.44 -172.48)"/><path class="cls-1" d="M679.2,241.25c0,.28,3.72-3.06,8.18-7.49s9.54-10.22,12.25-14.85c-5.3,9.25-15.59,26.68-14.87,26.6,9.28-1.75,16-5.58,20.82-10.9a33.31,33.31,0,0,0,8.08-18.27,30.49,30.49,0,0,0-2.12-15.56,22.11,22.11,0,0,0-2.25-4.08c-.62-.9-1-1.35-1-1.35l-4.73,3.74c-2.76,2.2-6.49,4.75-10.12,7.78a37.77,37.77,0,0,0-10,12.17C680.65,224.43,678.66,231.66,679.2,241.25Z" transform="translate(-116.44 -172.48)"/><path class="cls-1" d="M627.75,354.6c0,.26,3.35-2.41,7.72-5.6s9.8-6.84,13.51-9.43A62.67,62.67,0,0,0,637.35,351c-3.32,4.14-5.44,7.68-5.21,7.64,15.79-1.55,22.56-7.72,27.63-14.83a77,77,0,0,0,5.77-9.89c1.38-2.78,2.14-4.73,2.14-4.73a24.81,24.81,0,0,0-5.06-1.54,31.07,31.07,0,0,0-12.71,0,27.36,27.36,0,0,0-22.16,27Z" transform="translate(-116.44 -172.48)"/><path class="cls-1" d="M731.52,289.19c-.32,0,2.63,3.48,5.38,8.52a35.63,35.63,0,0,1,3.2,8.38,48.36,48.36,0,0,1,1,8.08,24.05,24.05,0,0,0-1.78-7.82,25.13,25.13,0,0,0-4.67-7c-3.67-3.83-7.32-5.86-7.24-5.66.23,4.06.66,7.33.74,10,.12,2.3.22,4.29.32,6.14a23.44,23.44,0,0,0,.94,4.84c.41,1.8,1.09,3.72,1.73,5.8a70,70,0,0,0,4.65,11,38.69,38.69,0,0,0,2.84,4.57,36.5,36.5,0,0,0,4.17-3.4,33.58,33.58,0,0,0,7.7-10.3,25.29,25.29,0,0,0,2.28-8.7,24.69,24.69,0,0,0-1.89-11.22,21.92,21.92,0,0,0-7.78-9.46A22.63,22.63,0,0,0,731.52,289.19Z" transform="translate(-116.44 -172.48)"/><path class="cls-1" d="M773.87,564.29c.25.05-1.72-3.84-4.31-8.74s-5.82-10.8-8.43-14.68c5.16,7.84,17.57,20.34,17.65,19.76,1.47-16.42-5.61-25.63-13.55-31.2a45.39,45.39,0,0,0-16.35-7,44.19,44.19,0,0,0,.08,17.82C751,549.66,757.44,560.64,773.87,564.29Z" transform="translate(-116.44 -172.48)"/><path class="cls-1" d="M737.74,424.18c-.09.09.75.32,2.36.66a27.19,27.19,0,0,0,3,0,20.94,20.94,0,0,0,3.84-.78c5.59-1.49,11.78-5.85,15.26-9.55-3.5,3.69-8.51,9.13-14,12.36a30.71,30.71,0,0,1-4,2.08c-1.3.54-2.57.86-3.6,1.22a16.57,16.57,0,0,0-3.42.69c4,3.36,9.48,4.35,14.13,4a26.85,26.85,0,0,0,12.17-4,29.7,29.7,0,0,0,12.36-15.9A30.88,30.88,0,0,0,777,400.11a20.63,20.63,0,0,0-1.18-4.29,14.72,14.72,0,0,0-.65-1.47l-1.46.69c-.91.44-2.18,1-3.75,1.73-3.08,1.4-7.14,3.12-11.18,5.28a40.75,40.75,0,0,0-11.18,8.29,36.76,36.76,0,0,0-4.34,6C741.85,418.56,740.62,421.34,737.74,424.18Z" transform="translate(-116.44 -172.48)"/><path class="cls-1" d="M672.54,619.64c.05,0,0-.15-.22-.4a4.39,4.39,0,0,0-1.1-1.1,24.11,24.11,0,0,0-5.69-3.06,59.29,59.29,0,0,0-16.16-3.8c4.62.32,11.27.43,16.84,1.1a39,39,0,0,1,7.2,1.44c1.89.58,3.19,1.46,3.13,1.25a23,23,0,0,0-8.11-10.13,27.48,27.48,0,0,0-9.26-4.42,29,29,0,0,0-16.91.79,31,31,0,0,0-11.37,6.9,15.64,15.64,0,0,0-2.6,3.26,8.85,8.85,0,0,0-.64,1.32l1.34.6c.76.35,1.91,1,3.15,1.78a85.31,85.31,0,0,0,10,5.5,33.57,33.57,0,0,0,13.72,3.1,31.5,31.5,0,0,0,8-1.1C666.69,622,669.46,620.75,672.54,619.64Z" transform="translate(-116.44 -172.48)"/><path class="cls-1" d="M616.8,478.28c.27-.17-4.11-1.5-8.12-4.94-4.17-3.26-7.89-8.19-10.37-11.64A30.55,30.55,0,0,0,610,471.16c4.44,2.08,8.07,1.74,7.89,1.65a69.13,69.13,0,0,1-4-7.63,35.33,35.33,0,0,0-3.14-5.49,34.41,34.41,0,0,0-8.22-7.85c-3-2.2-6.2-4.16-8.58-5.72l-4.07-2.6s-.27.4-.68,1.16a19.89,19.89,0,0,0-1.45,3.39,24.93,24.93,0,0,0-.82,12.37,24.51,24.51,0,0,0,8.7,14.68,22.38,22.38,0,0,0,9.54,4.47A18.58,18.58,0,0,0,616.8,478.28Z" transform="translate(-116.44 -172.48)"/><path class="cls-1" d="M741.67,741.71c.1.24,1.75-4.54,1.5-11.15a39.53,39.53,0,0,0-2-10.37,34.56,34.56,0,0,0-4.61-8.86,83.65,83.65,0,0,1,5.58,8.42,60,60,0,0,1,4.45,10.18c2.13,6.8,2.32,12.64,2.63,12.39a27.49,27.49,0,0,0,7-13.7,29.71,29.71,0,0,0-1.09-14.48,31.91,31.91,0,0,0-32.72-21.45,27.68,27.68,0,0,0-4.92.8c-1.14.28-1.76.5-1.76.5l.55,1.75c.37,1.08.89,2.62,1.53,4.48,1.19,3.47,2.78,8.07,4.49,13,1.67,4.65,3.25,8.92,6.06,12.83S735.36,734,741.67,741.71Z" transform="translate(-116.44 -172.48)"/><path class="cls-1" d="M681.77,826c.2-.06-3.22-1.93-8.24-3a50.9,50.9,0,0,0-15.85-.6c4.4-.58,10.65-1.8,16-2.06s9.74.29,9.59,0a23.68,23.68,0,0,0-8.73-7.43,25.75,25.75,0,0,0-9.76-2.53,27.65,27.65,0,0,0-15.13,3.68,54.66,54.66,0,0,0-9.19,6.77c-2.26,2-3.7,3.46-3.7,3.46a23.72,23.72,0,0,0,4,3.3A34.6,34.6,0,0,0,652,832.51a32.14,32.14,0,0,0,14.1.39C670.8,832,675.05,829.64,681.77,826Z" transform="translate(-116.44 -172.48)"/><path class="cls-1" d="M647.31,784c.23-.06-3.54-2.21-9-3.64a52.67,52.67,0,0,0-17.42-1.43c4.86-.52,11.83-1.49,17.78-1.49s10.66.7,10.51.42a27,27,0,0,0-9.19-8.52,28.23,28.23,0,0,0-10.6-3.32,30.09,30.09,0,0,0-17.45,3.69,43.22,43.22,0,0,0-10.31,8.09,42.35,42.35,0,0,0-3.68,4.28,35.71,35.71,0,0,0,4.74,3.11,50.43,50.43,0,0,0,12.08,4.78,36.63,36.63,0,0,0,14.87.86C634.7,790,639.74,787.75,647.31,784Z" transform="translate(-116.44 -172.48)"/><path class="cls-1" d="M467.3,816.35c.29-.07-3.14-2.64-5.82-6.88-2.83-4.13-5-9.6-6.48-13.37a32.76,32.76,0,0,0,8.33,11.77c3.47,3.15,6.85,4.06,6.73,3.91-.8-3.32-1.07-6-1.47-8.25a29.08,29.08,0,0,0-7.52-15.78,78.71,78.71,0,0,0-7.14-7.26c-2.07-1.86-3.54-3-3.54-3a21.08,21.08,0,0,0-2.59,4,26.81,26.81,0,0,0-3,11.09,24,24,0,0,0,4.39,15.15,22.08,22.08,0,0,0,7.38,6.48A18.65,18.65,0,0,0,467.3,816.35Z" transform="translate(-116.44 -172.48)"/><path class="cls-1" d="M471.78,886.15c.32-.18-5.4-2-13.55-1.41a64.35,64.35,0,0,0-12.8,2.24,101,101,0,0,0-11.51,4.15c3.27-1.32,7-3.44,11.05-5.37a114.09,114.09,0,0,1,12.41-5.17c8.07-2.92,15.36-3.36,15.05-3.65a34,34,0,0,0-16.93-8,39.21,39.21,0,0,0-16.37.65,40.18,40.18,0,0,0-7,2.48l-1.41.68-1.16.63c-.83.45-1.58.9-2.41,1.41a56,56,0,0,0-9.19,7.08,46.8,46.8,0,0,0-11.55,16.61,26.32,26.32,0,0,0-1.6,6,18.41,18.41,0,0,0-.17,2.24s3.27.07,7.81.64,10.47,1.57,17.27,1.5a46.45,46.45,0,0,0,11.09-1.42c1-.24,2.06-.58,3.08-.92l1.62-.6,1.41-.56a48,48,0,0,0,4.73-2.32,52.53,52.53,0,0,0,9.27-6.79C464.1,893.43,467.33,890,471.78,886.15Z" transform="translate(-116.44 -172.48)"/><path class="cls-1" d="M587.13,903.1c.13-.11-1.06-.51-3.28-1a38,38,0,0,0-9.48-.23,68.49,68.49,0,0,0-23.2,6.52c6-3,14.53-7.74,22.31-10.49A64.22,64.22,0,0,1,583.73,895c2.77-.37,4.52-.57,4.37-.71a31.81,31.81,0,0,0-16.63-7.57,38.15,38.15,0,0,0-15.55.81,41.21,41.21,0,0,0-21.2,13.77,45.58,45.58,0,0,0-8.82,17,32.3,32.3,0,0,0-1.06,5.73c-.12,1.37-.12,2.13-.12,2.13l2.15.07,5.52.08a124.73,124.73,0,0,0,16.87-.78,50.3,50.3,0,0,0,19-6,47.74,47.74,0,0,0,8.94-6.69C580.16,910.12,583,906.69,587.13,903.1Z" transform="translate(-116.44 -172.48)"/><path class="cls-1" d="M474.6,939.42c0-.13-.89.09-2.52.57a29.64,29.64,0,0,0-6.19,3.28A45.44,45.44,0,0,0,453.53,956c2.61-4.22,6.33-10.36,10.36-14.92a51.06,51.06,0,0,1,5.54-5.53,13.12,13.12,0,0,0,2.48-2,23.67,23.67,0,0,0-13.32,1.12,27.65,27.65,0,0,0-9.78,6.27,29.78,29.78,0,0,0-8.38,17.19,30.28,30.28,0,0,0,1.49,14.35,20.22,20.22,0,0,0,1.88,3.91,14.33,14.33,0,0,0,.87,1.3l1.29-.91c.8-.58,1.91-1.38,3.29-2.32,2.72-1.89,6.3-4.25,9.81-7.08a37.84,37.84,0,0,0,9.37-10.57,37.21,37.21,0,0,0,3.19-7.41C472.56,946.53,473.24,943.29,474.6,939.42Z" transform="translate(-116.44 -172.48)"/><path class="cls-1" d="M489.41,981.21c-.1-.16-1,3-1.23,7.32a39.92,39.92,0,0,0,1.29,13.2,131,131,0,0,1-3.52-13c-.95-4.35-1.22-8-1.39-7.81a21.49,21.49,0,0,0-5.88,16.18,22.28,22.28,0,0,0,5.73,13.24,19.27,19.27,0,0,0,9.57,5.93,11.7,11.7,0,0,0,3.28.35c.76,0,1.16-.09,1.16-.09l-.12-1.18a22.29,22.29,0,0,1-.16-2.92c-.05-2.38.27-5.32.39-8.47a27,27,0,0,0-1.36-10.25C495.93,989.94,493.49,986.1,489.41,981.21Z" transform="translate(-116.44 -172.48)"/><path class="cls-1" d="M694,974.46c.22-.15-4.73-1.24-11.31-1.26a64.38,64.38,0,0,0-20,3.18c5.32-1.91,12.94-4.82,19.57-6.55s12-2.55,11.76-2.79a33.45,33.45,0,0,0-12.64-6.67,32.54,32.54,0,0,0-12.62-.8,34.7,34.7,0,0,0-18.76,9,45.84,45.84,0,0,0-9.31,12.24,44.19,44.19,0,0,0-2.7,6,46.06,46.06,0,0,0,6.26,1.91,65.66,65.66,0,0,0,14.71,1.79,42.67,42.67,0,0,0,16.81-3C681.28,985.11,686.72,981.15,694,974.46Z" transform="translate(-116.44 -172.48)"/><path class="cls-1" d="M625.69,960.76c.24-.13-4.58-1-11,.71a56.57,56.57,0,0,0-18.43,8.62c4.61-3.36,11-8.49,17.17-11.82,6-3.53,11.87-4.71,11.56-5a27.3,27.3,0,0,0-14.7-4.08,32.37,32.37,0,0,0-13,2.85,35.15,35.15,0,0,0-15.48,14,49.79,49.79,0,0,0-5.62,14.24,58.53,58.53,0,0,0-1.19,6.46,38.48,38.48,0,0,0,6.62.35,59.4,59.4,0,0,0,15-2.32A42.44,42.44,0,0,0,612.07,977a40.11,40.11,0,0,0,6.41-6.72C620.57,967.63,622.64,964.46,625.69,960.76Z" transform="translate(-116.44 -172.48)"/><path class="cls-1" d="M442.42,632.87c.18,0-1.09-.79-2.72-2.22a21.61,21.61,0,0,1-4.38-6.53c-2.53-5.37-3.89-12.1-5.21-16.7,1.29,4.57,4.11,11,7.64,15.17a14.11,14.11,0,0,0,4.87,4c1.34.45,2,.49,2,.41a12.06,12.06,0,0,1-.33-2.39,19.91,19.91,0,0,1,.07-2.16c.11-1.49.23-2.63.28-4a29.61,29.61,0,0,0-.58-7.36A35.89,35.89,0,0,0,438,598a54.61,54.61,0,0,0-8.41-9.31,35.83,35.83,0,0,0-4.4-3.36,41.18,41.18,0,0,0-2.76,4.78,39.38,39.38,0,0,0-3.91,12.35,29.24,29.24,0,0,0,2.85,17.31,26.61,26.61,0,0,0,7.33,8.92,22.39,22.39,0,0,0,6.06,3.43,21.37,21.37,0,0,0,3.72.9A16,16,0,0,0,442.42,632.87Z" transform="translate(-116.44 -172.48)"/><path class="cls-1" d="M214.89,697.34c.2-.2-4.49-.86-10.53-1.51s-13.37-1.34-18.49-1.49a112.34,112.34,0,0,0,18.42-1.59c6-.94,10.6-2,10.39-2.12-14.16-11.55-26.68-10.52-36-7.32a82,82,0,0,0-11.41,5.27c-.78.41-1.31.68-1.95,1a15.4,15.4,0,0,1-1.57.64,9.54,9.54,0,0,1-1.56.36,5.85,5.85,0,0,0,.42,1.59,8.82,8.82,0,0,0,1,1.81,17.13,17.13,0,0,0,1.64,2.16,35,35,0,0,0,12,8.56C187.57,709.25,201.66,709.84,214.89,697.34Z" transform="translate(-116.44 -172.48)"/><path class="cls-1" d="M741.19,256.37c0,.29,3.25-2.42,7.91-4.5a57.7,57.7,0,0,1,7.49-2.68c2.56-.67,5-1.22,7.06-1.65a32.91,32.91,0,0,0-6.79,2.37,33.39,33.39,0,0,0-6.44,4.09c-3.7,3-5.46,6.2-5.28,6.13,7.07-.23,11.29.16,15.18-.68a33.11,33.11,0,0,0,10.76-4.39,67.87,67.87,0,0,0,8.6-6.15,45.66,45.66,0,0,0,3.51-3.24,26.51,26.51,0,0,0-3.71-3.1,29,29,0,0,0-10.57-4.74,24.37,24.37,0,0,0-16,1.9,22.79,22.79,0,0,0-7.72,6.38A20.18,20.18,0,0,0,741.19,256.37Z" transform="translate(-116.44 -172.48)"/><path class="cls-1" d="M745,358.81c.18-.29-4.86.11-11.15-.32a93.81,93.81,0,0,1-9.87-1.16c-3.27-.62-6.36-1.33-8.87-2a35.47,35.47,0,0,0,9,1.08,51.7,51.7,0,0,0,9.58-1c5.93-1.17,10.16-3.15,9.92-3.24-15.44-9.38-23-9.93-31.14-9.42a68.64,68.64,0,0,1-11.54-.13c-1.74-.11-3.06-.45-4.13-.58l-1.64-.25a14.43,14.43,0,0,0-.21,1.62A18.32,18.32,0,0,0,695,348a24.31,24.31,0,0,0,7.65,14.24A29.27,29.27,0,0,0,723.07,370,28.57,28.57,0,0,0,745,358.81Z" transform="translate(-116.44 -172.48)"/><path class="cls-1" d="M791.68,237.24c.45.51,4.09-22.75,4.09-35.23,0,12.48,3.64,35.74,4.09,35.23,29.32-33.41-4.09-64.76-4.09-64.76S762.37,203.83,791.68,237.24Z" transform="translate(-116.44 -172.48)"/></g><path class="cls-2" d="M1434.81,776.34c-46.93-38.26-61.46,49.81-93.66,68.43,16-26.95-14.77-74.4-44.55-48.94-6,5.19,1.85,15,8.41,10.88,38.41-20.66,46.34,71.44-43.55,60.61,7.73-4.42,15.86-12.85,15.52-22.24,1.91-3.3-7-8.63-9.75-2.83-2.29,2.86-4.79,9.7-9,12.51-29.8,19.5-74.57-12.43-110.37-7,18.46-8.77,35.7-20.53,49.24-36,32.84-16,67.48-34.67,75.94-73.45,6.67-6.65,21.28-14.25,27.42-6.22,20.44,13,10.72-27-19.54-12.42,23-44.63,77-11.65,69.68-31.49-27.72-22.74-75.57,5.18-84.71,36.56-7.51,28.86-23.67,53.79-52.33,65.16,25.2-37,4.06-81,28.61-114.07,4.76-8.06,21.1-10.18,18.76-21-11.81-12.92-28.23,12.7-33.84,23.18,3.47-24.26-6.83-55.67,14.87-73.93,3.14-2.41,6.89-3.91,10.89-3.12,3.07.28,5.59-2.53,6-5.31.31-10.43-14.66-7.83-20.49-4,12.14-36.43,59.78-48.91,88.49-23.37,17.49,11.65,18.25,52.27-8.65,48a7.41,7.41,0,0,0-1.1-1.33c-2.22-8.4-15-5.52-12.92,3,4.31,20,29.83,13.83,40,2.61,34.63-51.62-45.34-97.56-88.57-69.23,40.76-61.28-59.61-109.55-58.07-44.58,2.53,5.36,8.23,7.19,13.76,7.54s6.59-8.5,1.28-9.46c-2.23-.39-4.06-.89-4.88-2.16,4.76-32.85,50-5.7,46.24,18.75-3.71,31.46-31.73,54-37.47,85.43-12.57-36.85-47.87-33.23-32-18.8,26.76,11.55,27.79,46.4,26,71.38.65,25.43,4.23,50.93.64,76.32C1197.58,695.41,1141,665,1106.58,698.9c-27.6,27-10.27,76,30.75,68.94,23.65-2.87,10.38-38.61-3-17.31-6.8,1-13.93-.34-20.36-2.68-29.93-23.66,15.55-73.77,59.15-42.06,32.59,25.28,25,77.7-3.36,103.09-27.54,23.72-64.24,31.64-99.28,36.77,34.61-15.57,35.64-81.45,8.8-37.5-27.16,83.27-141,9.77-233,121.68,5.89-44.09,11.11-93.58,41.41-128.37C915,765.34,1017,713.4,1019,792.05c-2.45,21.15-32.21,30.91-48.55,19.84-4.08-2.08-6.61-15.72-11.69-8.85-6.24,29.11,36.37,31.7,54,19.74,47.55-33,2.9-98.64-48.06-83,50-32.49,115.12-39.45,155.53-86.49,10.49-11.94,23.89-30.79,15.6-46.78-4.37-5.94-9.25,1.94-10.33,6.3-7.42,46.42-53.82,69.88-93.85,84.49,42.52-34.27,70.31-88.81,73.95-143,3.25-16.41,2.82-35.84,11.68-49.57,1.83-2.27,2.75-2.77,5-3.32a10.41,10.41,0,0,0,1.3,0c4.08,1.9,9.39.88,10.7-3.89-1.89-19.47-29.68-6-31.38,8.25-37.3-147.38,106.52-165,103.63-82.41-4.35,24.49-36.07,47.81-59.29,32.64-10.36-8.32-18.39-32.8.21-34.65,8.29-.19,8.31-12.73,0-12.82-34.48-.72-28.31,45.1-6.09,58.41,48.28,26.5,102.94-46.78,62.59-85.56-19.67-21.1-55.1-25.15-79-8.36,11-18.7,21.5-50.44-4.76-61.33-3.57-1.25-6.71,3.23-4.84,6.3,42.42,59.08-58.27,70.79-40.29,172.89-31.77-56.36-99.37-15.93-70.12,2.38,7.42,1.05,8.86-5.7,10.47-11.21,10.91-15.38,32.28-5.78,42.45,5.83,36.13,39.06,25.32,98.53-4.88,137.73,4.58-19.16-1.37-70.3-30.53-51a2.85,2.85,0,0,0,2,4.8c21.31-3.91,18.8,26,18.23,40.4-4.67,49.74-63.55,64.06-101,84.57C971.61,680,1007.1,559.63,937.82,575c-5.69,2.56-1.51,11.22,4.11,9.76,18.51-6.49,23.71,16.17,24,29.92,2.06,34.75-25.73,65.16-50.88,85.35-48,33.82-76.48,91.44-100,144,5.74-62-15.54-187.43,60.14-209.37,27.13-6.43,57.16,29.2,20.3,39.76,0,0-2.45.34-2.46.31-7.31.76-31-9.73-23.61,6.39,22.68,24,65.1-5.65,48.89-35.24-32.78-45.66-95.36-3.68-109.14,38.19-.6-1-1.33-1.92-1.88-2.94a155.5,155.5,0,0,1,42.08-91.92c21.42-23.15,99.89-122.47,127.51-71.38,1.53,4.54,3.25,9.29,2.7,14.13.17-2.87-.23-.59-.4.59.1-.14.19-.28.33-.45-.32.24-.35,1.17-.67,1.39a3.27,3.27,0,0,1-.6.88l.13-.22c-1,.58-7.2,5.31-5.35,3.92-7.67,4.21-3.08,14.47,5,14-3.18-.61,2.29.29,1.75.28,48.71-15.95-4.72-79.36-42.85-55.46,66.51-58.36,45.62-124.83,84.67-145.56,27.83-12,51.62,26.58,28.48,42.22-4.1,2.54-8.87,1.57-13.39,1.16-6.93-.66-8,8.71-3.25,12,26.71,15.1,41.7-23.52,30.54-43.92-16.92-35.79-64.62-17.84-71.94,15.63.46-30.51-19.32-72.48,10.32-94.9-.32.2-.52.32-.64.38,1.41-.64,3.35-.76,4.89-1.19,24.84-10.37-29.82-41.8-26.85,38.7-16.22-38.31-55.65-61.37-96.84-62.16-17.73-8.87-51-32.39-29.33-52.88,2.06-2.73-1.36-6.47-4.3-5.6-31,15.63,3.89,49.36,23,59-49.67,4.1-83.57,73-51.85,113.1,10.84,15.38,33.36,30.88,51.49,18.32,6.32-4.77,1.08-13.64-6.16-10.54-3.84,1.65-8.13,1-12.54-.32C768.26,344.5,843.81,229.84,928.5,280c-38-12.17-58.48,59.12-21.63,47,3.83-5.68-6.46-5.35-8.58-8.05-7.86-16.1,8.89-35.34,25.84-33.43,65.21,15.37,66,111.07,34.85,157.66,5.85-24,4.28-75.31-30.44-70.36-1.75,1-1.69,3.09-.58,4.5,32.41,14.17,28.72,58.32,14.68,85.25-17.89,26.08-45.27,43.65-67.2,66.08,37.08-39.21-1.16-100.15-51.89-85.42-27,9.49-28.53,49.4-3.92,62.63,12,7.51,28.15-4.15,24-12.27-.56-7.27-9.44-9.65-12.86-3,.37-.62-1.18,1.42-1.3,1.48-2-.06-7.83-2.18-8.32-2.06-15.62-4.54-14.62-24.17-5.17-34.52,39.56-30.5,98.74,26.37,47.06,76.05-30.37,29.95-59.07,61-68.44,104C784.72,561.76,682,523,710.79,469.72c38.55-53.13,95.66-.31,57.29,20.32-.55-.1-6.3,2-8.33,2.06-.11-.06-1.67-2.11-1.3-1.48-3.42-6.69-12.29-4.31-12.85,3-4.15,8.08,12.09,19.81,24,12.27,24.59-13.22,23.12-53.15-3.93-62.63-50.73-14.72-89,46.22-51.88,85.42-21.93-22.43-49.32-40-67.21-66.08-14-26.92-17.72-71.09,14.68-85.25,1.11-1.41,1.17-3.49-.58-4.49-34.73-4.94-36.27,46.36-30.44,70.35-31.21-46.54-30.35-142.33,34.85-157.67,17-1.91,33.7,17.35,25.84,33.44-2.09,2.7-12.42,2.38-8.58,8.05C719,339.25,699,267.93,660.76,280c84.74-50.16,160.2,64.54,75.29,100.38-4.41,1.32-8.69,2-12.54.31-7.24-3.1-12.48,5.77-6.16,10.54,18.14,12.56,40.65-2.94,51.49-18.32,31.72-40.07-2.17-109-51.85-113.1,19.07-9.61,54-43.38,23-59-3-.87-6.37,2.87-4.31,5.6,21.65,20.5-11.59,44-29.33,52.88-41.18.79-80.63,23.85-96.84,62.16,2.93-80.62-51.69-49-26.85-38.7,1.54.42,3.49.55,4.89,1.19l-.64-.38c29.64,22.45,9.86,64.35,10.33,94.9-7.33-33.46-55-51.44-72-15.63-11.15,20.4,3.83,59,30.54,43.92,4.7-3.27,3.68-12.64-3.25-12-4.52.41-9.29,1.38-13.39-1.16-23.12-15.61.64-54.29,28.48-42.21,38.66,20.07,18.54,87.72,84.68,145.55-38.19-23.9-91.54,39.53-42.85,55.46-.55,0,4.92-.89,1.74-.28,8,.44,12.64-9.82,5-14,.94.78.84.72-.18-.09-1.47-1.56-3.51-2.5-5.17-3.83,0,.06.08.15.13.22a3.31,3.31,0,0,1-.61-.88c-.32-.22-.35-1.15-.67-1.39.14.17.23.31.33.45-.17-1.18-.57-3.46-.4-.59-.55-4.84,1.18-9.59,2.7-14.13,27.63-51.05,106,48.1,127.52,71.38a155.52,155.52,0,0,1,42.07,91.92c-.55,1-1.28,2-1.87,2.94-13.77-41.86-76.38-83.86-109.15-38.19-16.19,29.6,26.2,59.27,48.9,35.23,7.32-16.11-16.27-5.63-23.62-6.38,0,0-2.42-.27-2.46-.31-36.84-10.53-6.84-46.22,20.3-39.75,75.69,22,54.39,147.21,60.14,209.36-23.48-52.57-51.94-110.23-100-144-25.16-20.19-52.94-50.59-50.89-85.33.32-13.75,5.52-36.43,24-29.93,5.63,1.46,9.8-7.2,4.11-9.76-69.28-15.37-33.78,104.91-3.86,129.34-37.39-20.48-96.33-34.85-101-84.57-.58-14.39-3.09-44.32,18.22-40.4a2.85,2.85,0,0,0,2-4.8c-29.17-19.26-35.09,31.84-30.53,51-30.2-39.2-41-98.68-4.87-137.73,10.16-11.61,31.54-21.22,42.44-5.83,1.6,5.52,3.07,12.25,10.47,11.2,29.27-18.34-38.4-58.69-70.12-2.37,18-102-82.68-113.72-40.29-172.89,1.87-3.07-1.27-7.55-4.84-6.3-26.25,10.92-15.71,42.61-4.75,61.33-23.89-16.79-59.32-12.74-79,8.36-40.33,38.79,14.3,112.07,62.6,85.56,22.21-13.32,28.39-59.13-6.1-58.41-8.31.11-8.29,12.62,0,12.82,18.6,1.85,10.57,26.32.21,34.65-23.22,15.17-54.93-8.15-59.28-32.64-2.84-82.71,140.94-64.84,103.63,82.41C484.68,491.55,456.9,478,455,497.51c1.32,4.77,6.62,5.79,10.71,3.89a10.2,10.2,0,0,0,1.29,0c2.24.55,3.15,1.05,5,3.32,8.86,13.74,8.43,33.15,11.69,49.57,3.64,54.17,31.42,108.7,73.94,143-40-14.6-86.44-38.08-93.85-84.49-1.07-4.35-6-12.26-10.32-6.3-8.31,16,5.11,34.84,15.6,46.78,40.41,47,105.48,54,155.53,86.49-51-15.6-95.63,50-48.07,83,17.62,12,60.25,9.36,54-19.75-5.1-6.86-7.6,6.76-11.7,8.85C602.48,823,572.71,813.2,570.27,792c2-78.64,104-26.71,131.27,9.43,30.31,34.8,35.51,84.26,41.41,128.36-92.23-112.08-205.58-38.25-233-121.68-26.77-43.92-25.88,21.84,8.8,37.5-35-5.13-71.74-13-99.27-36.77-28.39-25.38-36-77.81-3.37-103.09,43.57-31.69,89.1,18.35,59.15,42.06-6.42,2.34-13.56,3.64-20.35,2.68-13.14-21.24-26.88,14.16-3,17.31,41,7.11,58.36-42,30.75-68.94-34.47-33.87-91-3.5-104.54,36.85-3.59-25.39,0-50.89.64-76.32-1.8-25-.75-59.85,26-71.39,15.89-14.34-19.32-18.16-32,18.81-5.74-31.45-33.75-54-37.47-85.43-3.73-24.44,41.49-51.61,46.24-18.75-.82,1.27-2.65,1.77-4.88,2.16-5.31,1-4.12,9.8,1.28,9.46s11.24-2.18,13.76-7.54c1.52-65-98.83-16.65-58.06,44.58C290.41,523,210.44,569,245.07,620.57c10.14,11.21,35.65,17.39,40-2.62,2.07-8.55-10.71-11.38-12.93-3a7.41,7.41,0,0,0-1.1,1.33c-26.89,4.3-26.15-36.32-8.65-48,28.7-25.52,76.37-13.07,88.5,23.37-5.83-3.83-20.81-6.41-20.5,4,.42,2.78,2.94,5.59,6,5.31,4-.79,7.74.7,10.88,3.12,21.71,18.27,11.4,49.66,14.87,73.93-5.6-10.53-22-36.06-33.84-23.19-2.34,10.78,14,12.95,18.76,21,24.52,33,3.45,77.22,28.62,114.07-28.7-11.4-44.8-36.29-52.34-65.16-9.12-31.37-57-59.31-84.71-36.56-7.5,19.73,46.91-13,69.68,31.49-30.33-14.56-39.93,25.45-19.54,12.42,6.16-8,20.74-.43,27.42,6.22,8.48,38.8,43.09,57.4,75.94,73.45,13.54,15.51,30.79,27.27,49.24,36-35.79-5.43-80.89,26.45-110.36,7-4.17-2.8-6.69-9.67-9-12.51-2.75-5.8-11.66-.46-9.75,2.83-.34,9.39,7.79,17.81,15.52,22.24C237.72,878.09,246,786,284.25,806.71c6.55,4.13,14.44-5.69,8.4-10.89-29.78-25.44-60.54,22-44.55,48.95-25.68-18.58-33.34-52.1-56.24-72.66-17.62-14.12-47.29,1.19-43,24.29,1.89,18.62,32.65,22.77,20.19,4.89-21.19-17.17,11.35-33.54,23.66-12.32,17.08,25.85,30.88,55.13,57.89,72.53C227,865.92,205,881.2,193.79,902.65c-3.8,7.44,7.13,14,11.27,6.59,14.37-27.27,45-44.12,74.74-35.32,39,15.42,80.85-1.48,119.75-9.16-20.66,7.47-47.48,12.14-55.94,35.4-6.61,13.16-3.28,35.38,14.78,35.33,6.07-.21,6.64-8,1.37-10.11-4.79-1.87-7-3.44-7.47-7.94,1.29-44.46,65.7-48.4,99.23-56,24.66,2.33,48.85,8,73,13.55-76.17,21.63-37.21,131.28,34,107.92,14.78-3.71,25.82-40.11,4.54-27.34-4.79,10.55-14.65,17.92-26.82,15.44-46.91-3.6-58.13-65.14-14.42-83.33,62.28-15.43,136,9.07,179.44,55.08-24.58-14.58-55.62-25.8-83-14.27-6.42,1.74-20.57,13.87-9.49,18,18.79-11.65,39.54-11.78,59.38-5.67,33.82,10.41,58.69,39.24,66.16,73.82,13.43,62.17,9.89,112,9.89,166.41,0,119.11-22.09,185.45-67.55,206H912c-45.46-20.58-67.55-86.92-67.55-206,0-61.82-3.64-109.73,10.12-168.29,7-29.71,26.94-55.08,54.79-67.56,18.45-8.27,38.37-11.91,57.5-5.38,4.85,2.35,15.2,12.14,17.69,2.76-16.83-34.12-70.45-15.65-96.42.23,43.43-46,117.17-70.51,179.45-55.09,43.68,18.21,32.5,79.74-14.43,83.34-12.16,2.48-22-4.89-26.82-15.44-21.27-12.78-10.24,23.64,4.55,27.33,71.18,23.38,110.1-86.32,34-107.91,24.1-5.56,48.3-11.22,73-13.55,33.5,7.58,98,11.54,99.24,56-.45,4.5-2.69,6.07-7.48,7.94-5.27,2.06-4.7,9.9,1.37,10.11,18.05,0,21.41-22.16,14.78-35.33-8.47-23.27-35.28-27.93-55.94-35.4,38.89,7.68,80.79,24.58,119.75,9.16,29.71-8.8,60.38,8.06,74.74,35.32,4.14,7.38,15.07.85,11.28-6.59-11.17-21.45-33.22-36.73-56.86-41.15,33.34-13.73,58-101.81,84.31-79.37,6.86,5.89,4.57,15.07-2.75,19.16C1405.34,826.6,1458.84,807.25,1434.81,776.34Zm-298.64-26.27-.3.07C1137.48,749.3,1136.67,750,1136.17,750.07Zm-12.48.33c1,.12.44.07,0,0ZM978.13,534.7c0-.08.07-.16.15-.21S978.17,534.63,978.13,534.7Zm67.36-139.42c.59-.12.42-.06,0,0ZM830.65,491h0s0,0,0,0Zm-72,0,0,0ZM543.76,395.28c-.42-.06-.59-.12,0,0ZM611,534.53l.09.17c0-.07-.1-.14-.15-.21ZM453.08,750.07c-.49-.08-1.31-.77.3.07Zm12.49.33c-.44.07-1.05.12,0,0Zm340.74-59.24.4-.19c-.17.53-.36,1-.52,1.58Zm-23.36,0c0,.46.07.93.11,1.39-.16-.53-.35-1-.52-1.58Z" transform="translate(-116.44 -172.48)"/></svg>